<?xml version="1.0" encoding="us-ascii" standalone="no"?><svg xmlns="http://www.w3.org/2000/svg" xmlns:xlink="http://www.w3.org/1999/xlink" contentStyleType="text/css" height="571px" preserveAspectRatio="none" style="width:2837px;height:571px;background:#FFFFFF;" version="1.1" viewBox="0 0 2837 571" width="2837px" zoomAndPan="magnify"><defs/><g><!--class SharedStruct--><g id="elem_SharedStruct"><rect codeLine="1" fill="#F1F1F1" height="48" id="SharedStruct" rx="2.5" ry="2.5" style="stroke:#181818;stroke-width:0.5;" width="127" x="504.5" y="408"/><ellipse cx="519.5" cy="424" fill="#ADD1B2" rx="11" ry="11" style="stroke:#181818;stroke-width:1.0;"/><path d="M521.8438,419.6719 C520.9063,419.2344 520.3125,419.0938 519.4375,419.0938 C516.8125,419.0938 514.8125,421.1719 514.8125,423.8906 L514.8125,425.0156 C514.8125,427.5938 516.9219,429.4844 519.8125,429.4844 C521.0313,429.4844 522.1875,429.1875 522.9375,428.6406 C523.5156,428.2344 523.8438,427.7813 523.8438,427.3906 C523.8438,426.9375 523.4531,426.5469 522.9844,426.5469 C522.7656,426.5469 522.5625,426.625 522.375,426.8125 C521.9219,427.2969 521.9219,427.2969 521.7344,427.3906 C521.3125,427.6563 520.625,427.7813 519.8594,427.7813 C517.8125,427.7813 516.5156,426.6875 516.5156,424.9844 L516.5156,423.8906 C516.5156,422.1094 517.7656,420.7969 519.5,420.7969 C520.0781,420.7969 520.6875,420.9531 521.1563,421.2031 C521.6406,421.4844 521.8125,421.7031 521.9063,422.1094 C521.9688,422.5156 522,422.6406 522.1406,422.7656 C522.2813,422.9063 522.5156,423.0156 522.7344,423.0156 C523,423.0156 523.2656,422.875 523.4375,422.6563 C523.5469,422.5 523.5781,422.3125 523.5781,421.8906 L523.5781,420.4688 C523.5781,420.0313 523.5625,419.9063 523.4688,419.75 C523.3125,419.4844 523.0313,419.3438 522.7344,419.3438 C522.4375,419.3438 522.2344,419.4375 522.0156,419.75 L521.8438,419.6719 Z " fill="#000000"/><text fill="#000000" font-family="sans-serif" font-size="14" lengthAdjust="spacing" textLength="95" x="533.5" y="428.8467">SharedStruct</text><line style="stroke:#181818;stroke-width:0.5;" x1="505.5" x2="630.5" y1="440" y2="440"/><line style="stroke:#181818;stroke-width:0.5;" x1="505.5" x2="630.5" y1="448" y2="448"/></g><!--class PropertyAddress--><g id="elem_PropertyAddress"><rect codeLine="4" fill="#F1F1F1" height="48" id="PropertyAddress" rx="2.5" ry="2.5" style="stroke:#181818;stroke-width:0.5;" width="153" x="314.5" y="516"/><ellipse cx="329.5" cy="532" fill="#ADD1B2" rx="11" ry="11" style="stroke:#181818;stroke-width:1.0;"/><path d="M331.8438,527.6719 C330.9063,527.2344 330.3125,527.0938 329.4375,527.0938 C326.8125,527.0938 324.8125,529.1719 324.8125,531.8906 L324.8125,533.0156 C324.8125,535.5938 326.9219,537.4844 329.8125,537.4844 C331.0313,537.4844 332.1875,537.1875 332.9375,536.6406 C333.5156,536.2344 333.8438,535.7813 333.8438,535.3906 C333.8438,534.9375 333.4531,534.5469 332.9844,534.5469 C332.7656,534.5469 332.5625,534.625 332.375,534.8125 C331.9219,535.2969 331.9219,535.2969 331.7344,535.3906 C331.3125,535.6563 330.625,535.7813 329.8594,535.7813 C327.8125,535.7813 326.5156,534.6875 326.5156,532.9844 L326.5156,531.8906 C326.5156,530.1094 327.7656,528.7969 329.5,528.7969 C330.0781,528.7969 330.6875,528.9531 331.1563,529.2031 C331.6406,529.4844 331.8125,529.7031 331.9063,530.1094 C331.9688,530.5156 332,530.6406 332.1406,530.7656 C332.2813,530.9063 332.5156,531.0156 332.7344,531.0156 C333,531.0156 333.2656,530.875 333.4375,530.6563 C333.5469,530.5 333.5781,530.3125 333.5781,529.8906 L333.5781,528.4688 C333.5781,528.0313 333.5625,527.9063 333.4688,527.75 C333.3125,527.4844 333.0313,527.3438 332.7344,527.3438 C332.4375,527.3438 332.2344,527.4375 332.0156,527.75 L331.8438,527.6719 Z " fill="#000000"/><text fill="#000000" font-family="sans-serif" font-size="14" lengthAdjust="spacing" textLength="121" x="343.5" y="536.8467">PropertyAddress</text><line style="stroke:#181818;stroke-width:0.5;" x1="315.5" x2="466.5" y1="548" y2="548"/><line style="stroke:#181818;stroke-width:0.5;" x1="315.5" x2="466.5" y1="556" y2="556"/></g><!--class PropertyData--><g id="elem_PropertyData"><rect codeLine="7" fill="#F1F1F1" height="48" id="PropertyData" rx="2.5" ry="2.5" style="stroke:#181818;stroke-width:0.5;" width="130" x="503" y="516"/><ellipse cx="518" cy="532" fill="#ADD1B2" rx="11" ry="11" style="stroke:#181818;stroke-width:1.0;"/><path d="M520.3438,527.6719 C519.4063,527.2344 518.8125,527.0938 517.9375,527.0938 C515.3125,527.0938 513.3125,529.1719 513.3125,531.8906 L513.3125,533.0156 C513.3125,535.5938 515.4219,537.4844 518.3125,537.4844 C519.5313,537.4844 520.6875,537.1875 521.4375,536.6406 C522.0156,536.2344 522.3438,535.7813 522.3438,535.3906 C522.3438,534.9375 521.9531,534.5469 521.4844,534.5469 C521.2656,534.5469 521.0625,534.625 520.875,534.8125 C520.4219,535.2969 520.4219,535.2969 520.2344,535.3906 C519.8125,535.6563 519.125,535.7813 518.3594,535.7813 C516.3125,535.7813 515.0156,534.6875 515.0156,532.9844 L515.0156,531.8906 C515.0156,530.1094 516.2656,528.7969 518,528.7969 C518.5781,528.7969 519.1875,528.9531 519.6563,529.2031 C520.1406,529.4844 520.3125,529.7031 520.4063,530.1094 C520.4688,530.5156 520.5,530.6406 520.6406,530.7656 C520.7813,530.9063 521.0156,531.0156 521.2344,531.0156 C521.5,531.0156 521.7656,530.875 521.9375,530.6563 C522.0469,530.5 522.0781,530.3125 522.0781,529.8906 L522.0781,528.4688 C522.0781,528.0313 522.0625,527.9063 521.9688,527.75 C521.8125,527.4844 521.5313,527.3438 521.2344,527.3438 C520.9375,527.3438 520.7344,527.4375 520.5156,527.75 L520.3438,527.6719 Z " fill="#000000"/><text fill="#000000" font-family="sans-serif" font-size="14" lengthAdjust="spacing" textLength="98" x="532" y="536.8467">PropertyData</text><line style="stroke:#181818;stroke-width:0.5;" x1="504" x2="632" y1="548" y2="548"/><line style="stroke:#181818;stroke-width:0.5;" x1="504" x2="632" y1="556" y2="556"/></g><!--class PropertyOwnerContact--><g id="elem_PropertyOwnerContact"><rect codeLine="10" fill="#F1F1F1" height="48" id="PropertyOwnerContact" rx="2.5" ry="2.5" style="stroke:#181818;stroke-width:0.5;" width="200" x="668" y="516"/><ellipse cx="683" cy="532" fill="#ADD1B2" rx="11" ry="11" style="stroke:#181818;stroke-width:1.0;"/><path d="M685.3438,527.6719 C684.4063,527.2344 683.8125,527.0938 682.9375,527.0938 C680.3125,527.0938 678.3125,529.1719 678.3125,531.8906 L678.3125,533.0156 C678.3125,535.5938 680.4219,537.4844 683.3125,537.4844 C684.5313,537.4844 685.6875,537.1875 686.4375,536.6406 C687.0156,536.2344 687.3438,535.7813 687.3438,535.3906 C687.3438,534.9375 686.9531,534.5469 686.4844,534.5469 C686.2656,534.5469 686.0625,534.625 685.875,534.8125 C685.4219,535.2969 685.4219,535.2969 685.2344,535.3906 C684.8125,535.6563 684.125,535.7813 683.3594,535.7813 C681.3125,535.7813 680.0156,534.6875 680.0156,532.9844 L680.0156,531.8906 C680.0156,530.1094 681.2656,528.7969 683,528.7969 C683.5781,528.7969 684.1875,528.9531 684.6563,529.2031 C685.1406,529.4844 685.3125,529.7031 685.4063,530.1094 C685.4688,530.5156 685.5,530.6406 685.6406,530.7656 C685.7813,530.9063 686.0156,531.0156 686.2344,531.0156 C686.5,531.0156 686.7656,530.875 686.9375,530.6563 C687.0469,530.5 687.0781,530.3125 687.0781,529.8906 L687.0781,528.4688 C687.0781,528.0313 687.0625,527.9063 686.9688,527.75 C686.8125,527.4844 686.5313,527.3438 686.2344,527.3438 C685.9375,527.3438 685.7344,527.4375 685.5156,527.75 L685.3438,527.6719 Z " fill="#000000"/><text fill="#000000" font-family="sans-serif" font-size="14" lengthAdjust="spacing" textLength="168" x="697" y="536.8467">PropertyOwnerContact</text><line style="stroke:#181818;stroke-width:0.5;" x1="669" x2="867" y1="548" y2="548"/><line style="stroke:#181818;stroke-width:0.5;" x1="669" x2="867" y1="556" y2="556"/></g><!--class Ownable--><g id="elem_Ownable"><rect codeLine="17" fill="#F1F1F1" height="48" id="Ownable" rx="2.5" ry="2.5" style="stroke:#181818;stroke-width:0.5;" width="94" x="1226" y="408"/><ellipse cx="1241" cy="424" fill="#ADD1B2" rx="11" ry="11" style="stroke:#181818;stroke-width:1.0;"/><path d="M1243.3438,419.6719 C1242.4063,419.2344 1241.8125,419.0938 1240.9375,419.0938 C1238.3125,419.0938 1236.3125,421.1719 1236.3125,423.8906 L1236.3125,425.0156 C1236.3125,427.5938 1238.4219,429.4844 1241.3125,429.4844 C1242.5313,429.4844 1243.6875,429.1875 1244.4375,428.6406 C1245.0156,428.2344 1245.3438,427.7813 1245.3438,427.3906 C1245.3438,426.9375 1244.9531,426.5469 1244.4844,426.5469 C1244.2656,426.5469 1244.0625,426.625 1243.875,426.8125 C1243.4219,427.2969 1243.4219,427.2969 1243.2344,427.3906 C1242.8125,427.6563 1242.125,427.7813 1241.3594,427.7813 C1239.3125,427.7813 1238.0156,426.6875 1238.0156,424.9844 L1238.0156,423.8906 C1238.0156,422.1094 1239.2656,420.7969 1241,420.7969 C1241.5781,420.7969 1242.1875,420.9531 1242.6563,421.2031 C1243.1406,421.4844 1243.3125,421.7031 1243.4063,422.1094 C1243.4688,422.5156 1243.5,422.6406 1243.6406,422.7656 C1243.7813,422.9063 1244.0156,423.0156 1244.2344,423.0156 C1244.5,423.0156 1244.7656,422.875 1244.9375,422.6563 C1245.0469,422.5 1245.0781,422.3125 1245.0781,421.8906 L1245.0781,420.4688 C1245.0781,420.0313 1245.0625,419.9063 1244.9688,419.75 C1244.8125,419.4844 1244.5313,419.3438 1244.2344,419.3438 C1243.9375,419.3438 1243.7344,419.4375 1243.5156,419.75 L1243.3438,419.6719 Z " fill="#000000"/><text fill="#000000" font-family="sans-serif" font-size="14" lengthAdjust="spacing" textLength="62" x="1255" y="428.8467">Ownable</text><line style="stroke:#181818;stroke-width:0.5;" x1="1227" x2="1319" y1="440" y2="440"/><line style="stroke:#181818;stroke-width:0.5;" x1="1227" x2="1319" y1="448" y2="448"/></g><!--class Property--><g id="elem_Property"><rect codeLine="20" fill="#F1F1F1" height="210.9688" id="Property" rx="2.5" ry="2.5" style="stroke:#181818;stroke-width:0.5;" width="1122" x="7" y="72"/><ellipse cx="531.75" cy="88" fill="#ADD1B2" rx="11" ry="11" style="stroke:#181818;stroke-width:1.0;"/><path d="M534.0938,83.6719 C533.1563,83.2344 532.5625,83.0938 531.6875,83.0938 C529.0625,83.0938 527.0625,85.1719 527.0625,87.8906 L527.0625,89.0156 C527.0625,91.5938 529.1719,93.4844 532.0625,93.4844 C533.2813,93.4844 534.4375,93.1875 535.1875,92.6406 C535.7656,92.2344 536.0938,91.7813 536.0938,91.3906 C536.0938,90.9375 535.7031,90.5469 535.2344,90.5469 C535.0156,90.5469 534.8125,90.625 534.625,90.8125 C534.1719,91.2969 534.1719,91.2969 533.9844,91.3906 C533.5625,91.6563 532.875,91.7813 532.1094,91.7813 C530.0625,91.7813 528.7656,90.6875 528.7656,88.9844 L528.7656,87.8906 C528.7656,86.1094 530.0156,84.7969 531.75,84.7969 C532.3281,84.7969 532.9375,84.9531 533.4063,85.2031 C533.8906,85.4844 534.0625,85.7031 534.1563,86.1094 C534.2188,86.5156 534.25,86.6406 534.3906,86.7656 C534.5313,86.9063 534.7656,87.0156 534.9844,87.0156 C535.25,87.0156 535.5156,86.875 535.6875,86.6563 C535.7969,86.5 535.8281,86.3125 535.8281,85.8906 L535.8281,84.4688 C535.8281,84.0313 535.8125,83.9063 535.7188,83.75 C535.5625,83.4844 535.2813,83.3438 534.9844,83.3438 C534.6875,83.3438 534.4844,83.4375 534.2656,83.75 L534.0938,83.6719 Z " fill="#000000"/><text fill="#000000" font-family="sans-serif" font-size="14" lengthAdjust="spacing" textLength="64" x="552.25" y="92.8467">Property</text><line style="stroke:#181818;stroke-width:0.5;" x1="8" x2="1128" y1="104" y2="104"/><ellipse cx="18" cy="117.6484" fill="none" rx="3" ry="3" style="stroke:#038048;stroke-width:1.0;"/><text fill="#000000" font-family="sans-serif" font-size="14" lengthAdjust="spacing" textLength="256" x="27" y="120.9951">propertyAddress : PropertyAddress</text><ellipse cx="18" cy="133.9453" fill="none" rx="3" ry="3" style="stroke:#038048;stroke-width:1.0;"/><text fill="#000000" font-family="sans-serif" font-size="14" lengthAdjust="spacing" textLength="210" x="27" y="137.292">propertyData : PropertyData</text><ellipse cx="18" cy="150.2422" fill="none" rx="3" ry="3" style="stroke:#038048;stroke-width:1.0;"/><text fill="#000000" font-family="sans-serif" font-size="14" lengthAdjust="spacing" textLength="350" x="27" y="153.5889">propertyOwnerContact : PropertyOwnerContact</text><ellipse cx="18" cy="166.5391" fill="none" rx="3" ry="3" style="stroke:#038048;stroke-width:1.0;"/><text fill="#000000" font-family="sans-serif" font-size="14" lengthAdjust="spacing" textLength="139" x="27" y="169.8857">imagesCid : string[]</text><line style="stroke:#181818;stroke-width:0.5;" x1="8" x2="1128" y1="177.1875" y2="177.1875"/><ellipse cx="18" cy="190.8359" fill="#84BE84" rx="3" ry="3" style="stroke:#038048;stroke-width:1.0;"/><text fill="#000000" font-family="sans-serif" font-size="14" lengthAdjust="spacing" textLength="1096" x="27" y="194.1826">Property(propertyAddress : PropertyAddress, propertyData : PropertyData, propertyOwnerContact : PropertyOwnerContact, imagesCid : string[]) : void</text><ellipse cx="18" cy="207.1328" fill="#84BE84" rx="3" ry="3" style="stroke:#038048;stroke-width:1.0;"/><text fill="#000000" font-family="sans-serif" font-size="14" lengthAdjust="spacing" textLength="586" x="27" y="210.4795">updatePropertyAddress(_propertyAddress : PropertyAddress) : void {onlyOwner}</text><ellipse cx="18" cy="223.4297" fill="#84BE84" rx="3" ry="3" style="stroke:#038048;stroke-width:1.0;"/><text fill="#000000" font-family="sans-serif" font-size="14" lengthAdjust="spacing" textLength="517" x="27" y="226.7764">updatePropertyData(_propertyData : PropertyData) : void {onlyOwner}</text><ellipse cx="18" cy="239.7266" fill="#84BE84" rx="3" ry="3" style="stroke:#038048;stroke-width:1.0;"/><text fill="#000000" font-family="sans-serif" font-size="14" lengthAdjust="spacing" textLength="727" x="27" y="243.0732">updatePropertyOwnerContact(_propertyOwnerContact : PropertyOwnerContact) : void {onlyOwner}</text><ellipse cx="18" cy="256.0234" fill="#84BE84" rx="3" ry="3" style="stroke:#038048;stroke-width:1.0;"/><text fill="#000000" font-family="sans-serif" font-size="14" lengthAdjust="spacing" textLength="422" x="27" y="259.3701">updateImagesCid(_imagesCid : string[]) : void {onlyOwner}</text><ellipse cx="18" cy="272.3203" fill="#84BE84" rx="3" ry="3" style="stroke:#038048;stroke-width:1.0;"/><text fill="#000000" font-family="sans-serif" font-size="14" lengthAdjust="spacing" textLength="174" x="27" y="275.667">getImagesCid() : string[]</text></g><!--class TestToken--><g id="elem_TestToken"><rect codeLine="36" fill="#F1F1F1" height="48" id="TestToken" rx="2.5" ry="2.5" style="stroke:#181818;stroke-width:0.5;" width="109" x="2534.5" y="153.5"/><ellipse cx="2549.5" cy="169.5" fill="#ADD1B2" rx="11" ry="11" style="stroke:#181818;stroke-width:1.0;"/><path d="M2551.8438,165.1719 C2550.9063,164.7344 2550.3125,164.5938 2549.4375,164.5938 C2546.8125,164.5938 2544.8125,166.6719 2544.8125,169.3906 L2544.8125,170.5156 C2544.8125,173.0938 2546.9219,174.9844 2549.8125,174.9844 C2551.0313,174.9844 2552.1875,174.6875 2552.9375,174.1406 C2553.5156,173.7344 2553.8438,173.2813 2553.8438,172.8906 C2553.8438,172.4375 2553.4531,172.0469 2552.9844,172.0469 C2552.7656,172.0469 2552.5625,172.125 2552.375,172.3125 C2551.9219,172.7969 2551.9219,172.7969 2551.7344,172.8906 C2551.3125,173.1563 2550.625,173.2813 2549.8594,173.2813 C2547.8125,173.2813 2546.5156,172.1875 2546.5156,170.4844 L2546.5156,169.3906 C2546.5156,167.6094 2547.7656,166.2969 2549.5,166.2969 C2550.0781,166.2969 2550.6875,166.4531 2551.1563,166.7031 C2551.6406,166.9844 2551.8125,167.2031 2551.9063,167.6094 C2551.9688,168.0156 2552,168.1406 2552.1406,168.2656 C2552.2813,168.4063 2552.5156,168.5156 2552.7344,168.5156 C2553,168.5156 2553.2656,168.375 2553.4375,168.1563 C2553.5469,168 2553.5781,167.8125 2553.5781,167.3906 L2553.5781,165.9688 C2553.5781,165.5313 2553.5625,165.4063 2553.4688,165.25 C2553.3125,164.9844 2553.0313,164.8438 2552.7344,164.8438 C2552.4375,164.8438 2552.2344,164.9375 2552.0156,165.25 L2551.8438,165.1719 Z " fill="#000000"/><text fill="#000000" font-family="sans-serif" font-size="14" lengthAdjust="spacing" textLength="77" x="2563.5" y="174.3467">TestToken</text><line style="stroke:#181818;stroke-width:0.5;" x1="2535.5" x2="2642.5" y1="185.5" y2="185.5"/><line style="stroke:#181818;stroke-width:0.5;" x1="2535.5" x2="2642.5" y1="193.5" y2="193.5"/></g><!--class ERC20--><g id="elem_ERC20"><rect codeLine="39" fill="#F1F1F1" height="48" id="ERC20" rx="2.5" ry="2.5" style="stroke:#181818;stroke-width:0.5;" width="78" x="2405" y="408"/><ellipse cx="2420" cy="424" fill="#ADD1B2" rx="11" ry="11" style="stroke:#181818;stroke-width:1.0;"/><path d="M2422.3438,419.6719 C2421.4063,419.2344 2420.8125,419.0938 2419.9375,419.0938 C2417.3125,419.0938 2415.3125,421.1719 2415.3125,423.8906 L2415.3125,425.0156 C2415.3125,427.5938 2417.4219,429.4844 2420.3125,429.4844 C2421.5313,429.4844 2422.6875,429.1875 2423.4375,428.6406 C2424.0156,428.2344 2424.3438,427.7813 2424.3438,427.3906 C2424.3438,426.9375 2423.9531,426.5469 2423.4844,426.5469 C2423.2656,426.5469 2423.0625,426.625 2422.875,426.8125 C2422.4219,427.2969 2422.4219,427.2969 2422.2344,427.3906 C2421.8125,427.6563 2421.125,427.7813 2420.3594,427.7813 C2418.3125,427.7813 2417.0156,426.6875 2417.0156,424.9844 L2417.0156,423.8906 C2417.0156,422.1094 2418.2656,420.7969 2420,420.7969 C2420.5781,420.7969 2421.1875,420.9531 2421.6563,421.2031 C2422.1406,421.4844 2422.3125,421.7031 2422.4063,422.1094 C2422.4688,422.5156 2422.5,422.6406 2422.6406,422.7656 C2422.7813,422.9063 2423.0156,423.0156 2423.2344,423.0156 C2423.5,423.0156 2423.7656,422.875 2423.9375,422.6563 C2424.0469,422.5 2424.0781,422.3125 2424.0781,421.8906 L2424.0781,420.4688 C2424.0781,420.0313 2424.0625,419.9063 2423.9688,419.75 C2423.8125,419.4844 2423.5313,419.3438 2423.2344,419.3438 C2422.9375,419.3438 2422.7344,419.4375 2422.5156,419.75 L2422.3438,419.6719 Z " fill="#000000"/><text fill="#000000" font-family="sans-serif" font-size="14" lengthAdjust="spacing" textLength="46" x="2434" y="428.8467">ERC20</text><line style="stroke:#181818;stroke-width:0.5;" x1="2406" x2="2482" y1="440" y2="440"/><line style="stroke:#181818;stroke-width:0.5;" x1="2406" x2="2482" y1="448" y2="448"/></g><!--class ERC20Burnable--><g id="elem_ERC20Burnable"><rect codeLine="42" fill="#F1F1F1" height="48" id="ERC20Burnable" rx="2.5" ry="2.5" style="stroke:#181818;stroke-width:0.5;" width="142" x="2518" y="408"/><ellipse cx="2533" cy="424" fill="#ADD1B2" rx="11" ry="11" style="stroke:#181818;stroke-width:1.0;"/><path d="M2535.3438,419.6719 C2534.4063,419.2344 2533.8125,419.0938 2532.9375,419.0938 C2530.3125,419.0938 2528.3125,421.1719 2528.3125,423.8906 L2528.3125,425.0156 C2528.3125,427.5938 2530.4219,429.4844 2533.3125,429.4844 C2534.5313,429.4844 2535.6875,429.1875 2536.4375,428.6406 C2537.0156,428.2344 2537.3438,427.7813 2537.3438,427.3906 C2537.3438,426.9375 2536.9531,426.5469 2536.4844,426.5469 C2536.2656,426.5469 2536.0625,426.625 2535.875,426.8125 C2535.4219,427.2969 2535.4219,427.2969 2535.2344,427.3906 C2534.8125,427.6563 2534.125,427.7813 2533.3594,427.7813 C2531.3125,427.7813 2530.0156,426.6875 2530.0156,424.9844 L2530.0156,423.8906 C2530.0156,422.1094 2531.2656,420.7969 2533,420.7969 C2533.5781,420.7969 2534.1875,420.9531 2534.6563,421.2031 C2535.1406,421.4844 2535.3125,421.7031 2535.4063,422.1094 C2535.4688,422.5156 2535.5,422.6406 2535.6406,422.7656 C2535.7813,422.9063 2536.0156,423.0156 2536.2344,423.0156 C2536.5,423.0156 2536.7656,422.875 2536.9375,422.6563 C2537.0469,422.5 2537.0781,422.3125 2537.0781,421.8906 L2537.0781,420.4688 C2537.0781,420.0313 2537.0625,419.9063 2536.9688,419.75 C2536.8125,419.4844 2536.5313,419.3438 2536.2344,419.3438 C2535.9375,419.3438 2535.7344,419.4375 2535.5156,419.75 L2535.3438,419.6719 Z " fill="#000000"/><text fill="#000000" font-family="sans-serif" font-size="14" lengthAdjust="spacing" textLength="110" x="2547" y="428.8467">ERC20Burnable</text><line style="stroke:#181818;stroke-width:0.5;" x1="2519" x2="2659" y1="440" y2="440"/><line style="stroke:#181818;stroke-width:0.5;" x1="2519" x2="2659" y1="448" y2="448"/></g><!--class AccessControl--><g id="elem_AccessControl"><rect codeLine="45" fill="#F1F1F1" height="48" id="AccessControl" rx="2.5" ry="2.5" style="stroke:#181818;stroke-width:0.5;" width="135" x="2695.5" y="408"/><ellipse cx="2710.5" cy="424" fill="#ADD1B2" rx="11" ry="11" style="stroke:#181818;stroke-width:1.0;"/><path d="M2712.8438,419.6719 C2711.9063,419.2344 2711.3125,419.0938 2710.4375,419.0938 C2707.8125,419.0938 2705.8125,421.1719 2705.8125,423.8906 L2705.8125,425.0156 C2705.8125,427.5938 2707.9219,429.4844 2710.8125,429.4844 C2712.0313,429.4844 2713.1875,429.1875 2713.9375,428.6406 C2714.5156,428.2344 2714.8438,427.7813 2714.8438,427.3906 C2714.8438,426.9375 2714.4531,426.5469 2713.9844,426.5469 C2713.7656,426.5469 2713.5625,426.625 2713.375,426.8125 C2712.9219,427.2969 2712.9219,427.2969 2712.7344,427.3906 C2712.3125,427.6563 2711.625,427.7813 2710.8594,427.7813 C2708.8125,427.7813 2707.5156,426.6875 2707.5156,424.9844 L2707.5156,423.8906 C2707.5156,422.1094 2708.7656,420.7969 2710.5,420.7969 C2711.0781,420.7969 2711.6875,420.9531 2712.1563,421.2031 C2712.6406,421.4844 2712.8125,421.7031 2712.9063,422.1094 C2712.9688,422.5156 2713,422.6406 2713.1406,422.7656 C2713.2813,422.9063 2713.5156,423.0156 2713.7344,423.0156 C2714,423.0156 2714.2656,422.875 2714.4375,422.6563 C2714.5469,422.5 2714.5781,422.3125 2714.5781,421.8906 L2714.5781,420.4688 C2714.5781,420.0313 2714.5625,419.9063 2714.4688,419.75 C2714.3125,419.4844 2714.0313,419.3438 2713.7344,419.3438 C2713.4375,419.3438 2713.2344,419.4375 2713.0156,419.75 L2712.8438,419.6719 Z " fill="#000000"/><text fill="#000000" font-family="sans-serif" font-size="14" lengthAdjust="spacing" textLength="103" x="2724.5" y="428.8467">AccessControl</text><line style="stroke:#181818;stroke-width:0.5;" x1="2696.5" x2="2829.5" y1="440" y2="440"/><line style="stroke:#181818;stroke-width:0.5;" x1="2696.5" x2="2829.5" y1="448" y2="448"/></g><!--class PropertyManager--><g id="elem_PropertyManager"><rect codeLine="52" fill="#F1F1F1" height="341.3438" id="PropertyManager" rx="2.5" ry="2.5" style="stroke:#181818;stroke-width:0.5;" width="1335" x="1164.5" y="7"/><ellipse cx="1765.25" cy="23" fill="#ADD1B2" rx="11" ry="11" style="stroke:#181818;stroke-width:1.0;"/><path d="M1767.5938,18.6719 C1766.6563,18.2344 1766.0625,18.0938 1765.1875,18.0938 C1762.5625,18.0938 1760.5625,20.1719 1760.5625,22.8906 L1760.5625,24.0156 C1760.5625,26.5938 1762.6719,28.4844 1765.5625,28.4844 C1766.7813,28.4844 1767.9375,28.1875 1768.6875,27.6406 C1769.2656,27.2344 1769.5938,26.7813 1769.5938,26.3906 C1769.5938,25.9375 1769.2031,25.5469 1768.7344,25.5469 C1768.5156,25.5469 1768.3125,25.625 1768.125,25.8125 C1767.6719,26.2969 1767.6719,26.2969 1767.4844,26.3906 C1767.0625,26.6563 1766.375,26.7813 1765.6094,26.7813 C1763.5625,26.7813 1762.2656,25.6875 1762.2656,23.9844 L1762.2656,22.8906 C1762.2656,21.1094 1763.5156,19.7969 1765.25,19.7969 C1765.8281,19.7969 1766.4375,19.9531 1766.9063,20.2031 C1767.3906,20.4844 1767.5625,20.7031 1767.6563,21.1094 C1767.7188,21.5156 1767.75,21.6406 1767.8906,21.7656 C1768.0313,21.9063 1768.2656,22.0156 1768.4844,22.0156 C1768.75,22.0156 1769.0156,21.875 1769.1875,21.6563 C1769.2969,21.5 1769.3281,21.3125 1769.3281,20.8906 L1769.3281,19.4688 C1769.3281,19.0313 1769.3125,18.9063 1769.2188,18.75 C1769.0625,18.4844 1768.7813,18.3438 1768.4844,18.3438 C1768.1875,18.3438 1767.9844,18.4375 1767.7656,18.75 L1767.5938,18.6719 Z " fill="#000000"/><text fill="#000000" font-family="sans-serif" font-size="14" lengthAdjust="spacing" textLength="125" x="1785.75" y="27.8467">PropertyManager</text><line style="stroke:#181818;stroke-width:0.5;" x1="1165.5" x2="2498.5" y1="39" y2="39"/><ellipse cx="1175.5" cy="52.6484" fill="none" rx="3" ry="3" style="stroke:#038048;stroke-width:1.0;"/><text fill="#000000" font-family="sans-serif" font-size="14" lengthAdjust="spacing" textLength="176" x="1184.5" y="55.9951">i_testToken : TestToken</text><ellipse cx="1175.5" cy="68.9453" fill="none" rx="3" ry="3" style="stroke:#038048;stroke-width:1.0;"/><text fill="#000000" font-family="sans-serif" font-size="14" lengthAdjust="spacing" textLength="164" x="1184.5" y="72.292">properties : Property[]</text><ellipse cx="1175.5" cy="85.2422" fill="none" rx="3" ry="3" style="stroke:#038048;stroke-width:1.0;"/><text fill="#000000" font-family="sans-serif" font-size="14" lengthAdjust="spacing" textLength="86" x="1184.5" y="88.5889">fee : double</text><ellipse cx="1175.5" cy="101.5391" fill="none" rx="3" ry="3" style="stroke:#038048;stroke-width:1.0;"/><text fill="#000000" font-family="sans-serif" font-size="14" lengthAdjust="spacing" textLength="169" x="1184.5" y="104.8857">exchangeRatio : double</text><ellipse cx="1175.5" cy="117.8359" fill="none" rx="3" ry="3" style="stroke:#038048;stroke-width:1.0;"/><text fill="#000000" font-family="sans-serif" font-size="14" lengthAdjust="spacing" textLength="161" x="1184.5" y="121.1826">returnPenalty : double</text><ellipse cx="1175.5" cy="134.1328" fill="none" rx="3" ry="3" style="stroke:#038048;stroke-width:1.0;"/><text fill="#000000" font-family="sans-serif" font-size="14" lengthAdjust="spacing" textLength="195" x="1184.5" y="137.4795">minReturnAmount : double</text><line style="stroke:#181818;stroke-width:0.5;" x1="1165.5" x2="2498.5" y1="144.7813" y2="144.7813"/><ellipse cx="1175.5" cy="158.4297" fill="#84BE84" rx="3" ry="3" style="stroke:#038048;stroke-width:1.0;"/><text fill="#000000" font-family="sans-serif" font-size="14" lengthAdjust="spacing" textLength="997" x="1184.5" y="161.7764">PropertyManager(fee : double, i_testToken : TestToken, exchangeRatio : double, returnPenalty : double, minReturnAmount : double) : void</text><ellipse cx="1175.5" cy="174.7266" fill="#84BE84" rx="3" ry="3" style="stroke:#038048;stroke-width:1.0;"/><text fill="#000000" font-family="sans-serif" font-size="14" lengthAdjust="spacing" textLength="1309" x="1184.5" y="178.0732">createNewProperty(propertyAddress : PropertyAddress, propertyData : PropertyData, propertyOwnerContact : PropertyOwnerContact, imagesCid : string[]) : void {requireFeesPaid}</text><ellipse cx="1175.5" cy="191.0234" fill="#84BE84" rx="3" ry="3" style="stroke:#038048;stroke-width:1.0;"/><text fill="#000000" font-family="sans-serif" font-size="14" lengthAdjust="spacing" textLength="170" x="1184.5" y="194.3701">purchaseTokens() : void</text><ellipse cx="1175.5" cy="207.3203" fill="#84BE84" rx="3" ry="3" style="stroke:#038048;stroke-width:1.0;"/><text fill="#000000" font-family="sans-serif" font-size="14" lengthAdjust="spacing" textLength="150" x="1184.5" y="210.667">returnTokens() : void</text><ellipse cx="1175.5" cy="223.6172" fill="#84BE84" rx="3" ry="3" style="stroke:#038048;stroke-width:1.0;"/><text fill="#000000" font-family="sans-serif" font-size="14" lengthAdjust="spacing" textLength="438" x="1184.5" y="226.9639">updateExchangeRatio(newRatio : double) : void {onlyOwner}</text><ellipse cx="1175.5" cy="239.9141" fill="#84BE84" rx="3" ry="3" style="stroke:#038048;stroke-width:1.0;"/><text fill="#000000" font-family="sans-serif" font-size="14" lengthAdjust="spacing" textLength="450" x="1184.5" y="243.2607">updateReturnPenalty(newPenalty : double) : void {onlyOwner}</text><ellipse cx="1175.5" cy="256.2109" fill="#84BE84" rx="3" ry="3" style="stroke:#038048;stroke-width:1.0;"/><text fill="#000000" font-family="sans-serif" font-size="14" lengthAdjust="spacing" textLength="555" x="1184.5" y="259.5576">updateMinReturnAmount(newMinReturnAmount : double) : void {onlyOwner}</text><ellipse cx="1175.5" cy="272.5078" fill="#84BE84" rx="3" ry="3" style="stroke:#038048;stroke-width:1.0;"/><text fill="#000000" font-family="sans-serif" font-size="14" lengthAdjust="spacing" textLength="345" x="1184.5" y="275.8545">updateFee(newFee : double) : void {onlyOwner}</text><ellipse cx="1175.5" cy="288.8047" fill="#84BE84" rx="3" ry="3" style="stroke:#038048;stroke-width:1.0;"/><text fill="#000000" font-family="sans-serif" font-size="14" lengthAdjust="spacing" textLength="198" x="1184.5" y="292.1514">getProperties() : Property[]</text><ellipse cx="1175.5" cy="305.1016" fill="#84BE84" rx="3" ry="3" style="stroke:#038048;stroke-width:1.0;"/><text fill="#000000" font-family="sans-serif" font-size="14" lengthAdjust="spacing" textLength="216" x="1184.5" y="308.4482">withdraw() : void {onlyOwner}</text><ellipse cx="1175.5" cy="321.3984" fill="#84BE84" rx="3" ry="3" style="stroke:#038048;stroke-width:1.0;"/><text fill="#000000" font-family="sans-serif" font-size="14" lengthAdjust="spacing" textLength="261" x="1184.5" y="324.7451">withdrawToken() : void {onlyOwner}</text><ellipse cx="1175.5" cy="337.6953" fill="#84BE84" rx="3" ry="3" style="stroke:#038048;stroke-width:1.0;"/><text fill="#000000" font-family="sans-serif" font-size="14" lengthAdjust="spacing" textLength="498" x="1184.5" y="341.042">withdrawCustom(amount : double, token : ERC20) : void {onlyOwner}</text></g><!--reverse link SharedStruct to PropertyAddress--><g id="link_SharedStruct_PropertyAddress"><path codeLine="13" d="M512.309,466.3518 C485.426,482.451 453.839,501.3677 429.637,515.8617 " fill="none" id="SharedStruct-backto-PropertyAddress" style="stroke:#181818;stroke-width:1.0;"/><polygon fill="none" points="508.839,460.271,529.594,456,516.032,472.2816,508.839,460.271" style="stroke:#181818;stroke-width:1.0;"/></g><!--reverse link SharedStruct to PropertyData--><g id="link_SharedStruct_PropertyData"><path codeLine="14" d="M568,476.0236 C568,489.5792 568,504.0381 568,515.6784 " fill="none" id="SharedStruct-backto-PropertyData" style="stroke:#181818;stroke-width:1.0;"/><polygon fill="none" points="561,476.0005,568,456,575,476.0004,561,476.0005" style="stroke:#181818;stroke-width:1.0;"/></g><!--reverse link SharedStruct to PropertyOwnerContact--><g id="link_SharedStruct_PropertyOwnerContact"><path codeLine="15" d="M629.19,465.4306 C659.934,481.7253 696.472,501.0903 724.343,515.8617 " fill="none" id="SharedStruct-backto-PropertyOwnerContact" style="stroke:#181818;stroke-width:1.0;"/><polygon fill="none" points="625.79,471.5514,611.397,456,632.347,459.181,625.79,471.5514" style="stroke:#181818;stroke-width:1.0;"/></g><!--link Property to SharedStruct--><g id="link_Property_SharedStruct"><path codeLine="33" d="M568,283.024 C568,319.71 568,358.92 568,387.755 " fill="none" id="Property-to-SharedStruct" style="stroke:#181818;stroke-width:1.0;"/><polygon fill="none" points="575,387.989,568,407.989,561,387.989,575,387.989" style="stroke:#181818;stroke-width:1.0;"/></g><!--link Property to Ownable--><g id="link_Property_Ownable"><path codeLine="34" d="M859.84,283.024 C988.001,328.926 1127.19,378.778 1206.88,407.317 " fill="none" id="Property-to-Ownable" style="stroke:#181818;stroke-width:1.0;"/><polygon fill="none" points="1209.34,400.764,1225.81,414.098,1204.62,413.944,1209.34,400.764" style="stroke:#181818;stroke-width:1.0;"/></g><!--link TestToken to ERC20--><g id="link_TestToken_ERC20"><path codeLine="48" d="M2581.83,201.567 C2570.79,235.279 2547.64,299.288 2517,348 C2507.01,363.878 2494.01,379.731 2481.75,393.264 " fill="none" id="TestToken-to-ERC20" style="stroke:#181818;stroke-width:1.0;"/><polygon fill="none" points="2486.73,398.185,2467.92,407.947,2476.54,388.588,2486.73,398.185" style="stroke:#181818;stroke-width:1.0;"/></g><!--link TestToken to ERC20Burnable--><g id="link_TestToken_ERC20Burnable"><path codeLine="49" d="M2589,201.802 C2589,243.985 2589,333.614 2589,387.441 " fill="none" id="TestToken-to-ERC20Burnable" style="stroke:#181818;stroke-width:1.0;"/><polygon fill="none" points="2596,387.754,2589,407.754,2582,387.754,2596,387.754" style="stroke:#181818;stroke-width:1.0;"/></g><!--link TestToken to AccessControl--><g id="link_TestToken_AccessControl"><path codeLine="50" d="M2605.06,201.802 C2634.77,244.925 2698.66,337.63 2735.42,390.983 " fill="none" id="TestToken-to-AccessControl" style="stroke:#181818;stroke-width:1.0;"/><polygon fill="none" points="2741.4,387.314,2746.98,407.754,2729.87,395.258,2741.4,387.314" style="stroke:#181818;stroke-width:1.0;"/></g><!--link PropertyManager to Ownable--><g id="link_PropertyManager_Ownable"><path codeLine="73" d="M1456.42,348.147 C1411.7,368.351 1370.71,386.867 1338.87,401.246 " fill="none" id="PropertyManager-to-Ownable" style="stroke:#181818;stroke-width:1.0;"/><polygon fill="none" points="1341.39,407.789,1320.28,409.642,1335.63,395.03,1341.39,407.789" style="stroke:#181818;stroke-width:1.0;"/></g><!--SRC=[pLJ1Rjim3BtdAtHqCGSOUWo60LdQ0Zra2zBUYYBGB2uHwaYP9Cyhqlvx9RcAAKLrSkpD9gd7nwT7LJNLcjnjg09sPrHJ6R8VlOv6bOylbDo1CizJnXJO_qpgYXgQY_zg1QYP58O6oAZ9jvVnE8KVg71T1jAuMI1YO_Ht3JbkDaR8brqotEI83ohoOqvYFYWTJJl9yxBbV4lNe6USsHfj51VhXqSN3_N5IKub6M3K9y_WKv8Scmlx_KzovbWrEqOD90IArKcE0OFifQYxdg_7U8vm3vQPvZmOF58FTyRym_2tGPjYDIHJUdWDfZzvWM_Pcl1Wl_7uvNkqSqdgtRh1jlUWpRry0e6zVBsSNNuz2lner97hfrLbByLDhMJT9Nf4tyyVpGO3NfgCCDFrcbDX9L3Tbl6LEHoTzAEWvU60FTGjn1y06sEoSRtjF_olDbIiOKaDbr56WR4S5o1eRUN3cIqNIv-SRcKZJ9HBg1QudrsCFEUIv6cK94-Y91zHm5jMAR1- -mdjvti4o5x1tuOhk07G2ygPz_YkKLO53LuJNU1PEXqoYMwfhh5yXO0srd5u8vTOOtSubNlu-3o-2WSmFt4xUI2hXJjyWnmpy1ei3XxtUiGkRxdPC4NRuYE0KE0LFLarQxIHsuB6qvJ4l1lPRtGM13rEONdnG_G6]--></g></svg>