<?xml version="1.0" encoding="us-ascii" standalone="no"?><svg xmlns="http://www.w3.org/2000/svg" xmlns:xlink="http://www.w3.org/1999/xlink" contentStyleType="text/css" height="782px" preserveAspectRatio="none" style="width:1000px;height:782px;background:#FFFFFF;" version="1.1" viewBox="0 0 1000 782" width="1000px" zoomAndPan="magnify"><defs/><g><!--class Property--><g id="elem_Property"><rect codeLine="1" fill="#F1F1F1" height="210.9688" id="Property" rx="2.5" ry="2.5" style="stroke:#181818;stroke-width:0.5;" width="367" x="118.5" y="408"/><ellipse cx="265.75" cy="424" fill="#ADD1B2" rx="11" ry="11" style="stroke:#181818;stroke-width:1.0;"/><path d="M268.0938,419.6719 C267.1563,419.2344 266.5625,419.0938 265.6875,419.0938 C263.0625,419.0938 261.0625,421.1719 261.0625,423.8906 L261.0625,425.0156 C261.0625,427.5938 263.1719,429.4844 266.0625,429.4844 C267.2813,429.4844 268.4375,429.1875 269.1875,428.6406 C269.7656,428.2344 270.0938,427.7813 270.0938,427.3906 C270.0938,426.9375 269.7031,426.5469 269.2344,426.5469 C269.0156,426.5469 268.8125,426.625 268.625,426.8125 C268.1719,427.2969 268.1719,427.2969 267.9844,427.3906 C267.5625,427.6563 266.875,427.7813 266.1094,427.7813 C264.0625,427.7813 262.7656,426.6875 262.7656,424.9844 L262.7656,423.8906 C262.7656,422.1094 264.0156,420.7969 265.75,420.7969 C266.3281,420.7969 266.9375,420.9531 267.4063,421.2031 C267.8906,421.4844 268.0625,421.7031 268.1563,422.1094 C268.2188,422.5156 268.25,422.6406 268.3906,422.7656 C268.5313,422.9063 268.7656,423.0156 268.9844,423.0156 C269.25,423.0156 269.5156,422.875 269.6875,422.6563 C269.7969,422.5 269.8281,422.3125 269.8281,421.8906 L269.8281,420.4688 C269.8281,420.0313 269.8125,419.9063 269.7188,419.75 C269.5625,419.4844 269.2813,419.3438 268.9844,419.3438 C268.6875,419.3438 268.4844,419.4375 268.2656,419.75 L268.0938,419.6719 Z " fill="#000000"/><text fill="#000000" font-family="sans-serif" font-size="14" lengthAdjust="spacing" textLength="64" x="286.25" y="428.8467">Property</text><line style="stroke:#181818;stroke-width:0.5;" x1="119.5" x2="484.5" y1="440" y2="440"/><rect fill="none" height="6" style="stroke:#C82930;stroke-width:1.0;" width="6" x="126.5" y="450.6484"/><text fill="#000000" font-family="sans-serif" font-size="14" lengthAdjust="spacing" textLength="247" x="138.5" y="456.9951">PropertyAddress propertyAddress</text><rect fill="none" height="6" style="stroke:#C82930;stroke-width:1.0;" width="6" x="126.5" y="466.9453"/><text fill="#000000" font-family="sans-serif" font-size="14" lengthAdjust="spacing" textLength="201" x="138.5" y="473.292">PropertyData propertyData</text><rect fill="none" height="6" style="stroke:#C82930;stroke-width:1.0;" width="6" x="126.5" y="483.2422"/><text fill="#000000" font-family="sans-serif" font-size="14" lengthAdjust="spacing" textLength="341" x="138.5" y="489.5889">PropertyOwnerContact propertyOwnerContact</text><rect fill="none" height="6" style="stroke:#C82930;stroke-width:1.0;" width="6" x="126.5" y="499.5391"/><text fill="#000000" font-family="sans-serif" font-size="14" lengthAdjust="spacing" textLength="132" x="138.5" y="505.8857">String[] imagesCid</text><line style="stroke:#181818;stroke-width:0.5;" x1="119.5" x2="484.5" y1="513.1875" y2="513.1875"/><ellipse cx="129.5" cy="526.8359" fill="#84BE84" rx="3" ry="3" style="stroke:#038048;stroke-width:1.0;"/><text fill="#000000" font-family="sans-serif" font-size="14" lengthAdjust="spacing" textLength="112" x="138.5" y="530.1826">{constructor}()</text><ellipse cx="129.5" cy="543.1328" fill="#84BE84" rx="3" ry="3" style="stroke:#038048;stroke-width:1.0;"/><text fill="#000000" font-family="sans-serif" font-size="14" lengthAdjust="spacing" textLength="182" x="138.5" y="546.4795">updatePropertyAddress()</text><ellipse cx="129.5" cy="559.4297" fill="#84BE84" rx="3" ry="3" style="stroke:#038048;stroke-width:1.0;"/><text fill="#000000" font-family="sans-serif" font-size="14" lengthAdjust="spacing" textLength="159" x="138.5" y="562.7764">updatePropertyData()</text><ellipse cx="129.5" cy="575.7266" fill="#84BE84" rx="3" ry="3" style="stroke:#038048;stroke-width:1.0;"/><text fill="#000000" font-family="sans-serif" font-size="14" lengthAdjust="spacing" textLength="229" x="138.5" y="579.0732">updatePropertyOwnerContact()</text><ellipse cx="129.5" cy="592.0234" fill="#84BE84" rx="3" ry="3" style="stroke:#038048;stroke-width:1.0;"/><text fill="#000000" font-family="sans-serif" font-size="14" lengthAdjust="spacing" textLength="135" x="138.5" y="595.3701">updateImagesCid()</text><ellipse cx="129.5" cy="608.3203" fill="#84BE84" rx="3" ry="3" style="stroke:#038048;stroke-width:1.0;"/><text fill="#000000" font-family="sans-serif" font-size="14" lengthAdjust="spacing" textLength="109" x="138.5" y="611.667">getImagesCid()</text></g><!--class PropertyManager--><g id="elem_PropertyManager"><rect codeLine="14" fill="#F1F1F1" height="341.3438" id="PropertyManager" rx="2.5" ry="2.5" style="stroke:#181818;stroke-width:0.5;" width="218" x="430" y="7"/><ellipse cx="472.45" cy="23" fill="#ADD1B2" rx="11" ry="11" style="stroke:#181818;stroke-width:1.0;"/><path d="M474.7938,18.6719 C473.8563,18.2344 473.2625,18.0938 472.3875,18.0938 C469.7625,18.0938 467.7625,20.1719 467.7625,22.8906 L467.7625,24.0156 C467.7625,26.5938 469.8719,28.4844 472.7625,28.4844 C473.9813,28.4844 475.1375,28.1875 475.8875,27.6406 C476.4656,27.2344 476.7938,26.7813 476.7938,26.3906 C476.7938,25.9375 476.4031,25.5469 475.9344,25.5469 C475.7156,25.5469 475.5125,25.625 475.325,25.8125 C474.8719,26.2969 474.8719,26.2969 474.6844,26.3906 C474.2625,26.6563 473.575,26.7813 472.8094,26.7813 C470.7625,26.7813 469.4656,25.6875 469.4656,23.9844 L469.4656,22.8906 C469.4656,21.1094 470.7156,19.7969 472.45,19.7969 C473.0281,19.7969 473.6375,19.9531 474.1063,20.2031 C474.5906,20.4844 474.7625,20.7031 474.8563,21.1094 C474.9188,21.5156 474.95,21.6406 475.0906,21.7656 C475.2313,21.9063 475.4656,22.0156 475.6844,22.0156 C475.95,22.0156 476.2156,21.875 476.3875,21.6563 C476.4969,21.5 476.5281,21.3125 476.5281,20.8906 L476.5281,19.4688 C476.5281,19.0313 476.5125,18.9063 476.4188,18.75 C476.2625,18.4844 475.9813,18.3438 475.6844,18.3438 C475.3875,18.3438 475.1844,18.4375 474.9656,18.75 L474.7938,18.6719 Z " fill="#000000"/><text fill="#000000" font-family="sans-serif" font-size="14" lengthAdjust="spacing" textLength="125" x="492.55" y="27.8467">PropertyManager</text><line style="stroke:#181818;stroke-width:0.5;" x1="431" x2="647" y1="39" y2="39"/><rect fill="none" height="6" style="stroke:#C82930;stroke-width:1.0;" width="6" x="438" y="49.6484"/><text fill="#000000" font-family="sans-serif" font-size="14" lengthAdjust="spacing" textLength="140" x="450" y="55.9951">IERC20 i_testToken</text><rect fill="none" height="6" style="stroke:#C82930;stroke-width:1.0;" width="6" x="438" y="65.9453"/><text fill="#000000" font-family="sans-serif" font-size="14" lengthAdjust="spacing" textLength="155" x="450" y="72.292">Property[] properties</text><rect fill="none" height="6" style="stroke:#C82930;stroke-width:1.0;" width="6" x="438" y="82.2422"/><text fill="#000000" font-family="sans-serif" font-size="14" lengthAdjust="spacing" textLength="82" x="450" y="88.5889">uint256 fee</text><rect fill="none" height="6" style="stroke:#C82930;stroke-width:1.0;" width="6" x="438" y="98.5391"/><text fill="#000000" font-family="sans-serif" font-size="14" lengthAdjust="spacing" textLength="165" x="450" y="104.8857">uint256 exchangeRatio</text><rect fill="none" height="6" style="stroke:#C82930;stroke-width:1.0;" width="6" x="438" y="114.8359"/><text fill="#000000" font-family="sans-serif" font-size="14" lengthAdjust="spacing" textLength="157" x="450" y="121.1826">uint256 returnPenalty</text><rect fill="none" height="6" style="stroke:#C82930;stroke-width:1.0;" width="6" x="438" y="131.1328"/><text fill="#000000" font-family="sans-serif" font-size="14" lengthAdjust="spacing" textLength="191" x="450" y="137.4795">uint256 minReturnAmount</text><line style="stroke:#181818;stroke-width:0.5;" x1="431" x2="647" y1="144.7813" y2="144.7813"/><ellipse cx="441" cy="158.4297" fill="#84BE84" rx="3" ry="3" style="stroke:#038048;stroke-width:1.0;"/><text fill="#000000" font-family="sans-serif" font-size="14" lengthAdjust="spacing" textLength="112" x="450" y="161.7764">{constructor}()</text><ellipse cx="441" cy="174.7266" fill="#84BE84" rx="3" ry="3" style="stroke:#038048;stroke-width:1.0;"/><text fill="#000000" font-family="sans-serif" font-size="14" lengthAdjust="spacing" textLength="151" x="450" y="178.0732">createNewProperty()</text><ellipse cx="441" cy="191.0234" fill="#84BE84" rx="3" ry="3" style="stroke:#038048;stroke-width:1.0;"/><text fill="#000000" font-family="sans-serif" font-size="14" lengthAdjust="spacing" textLength="127" x="450" y="194.3701">purchaseTokens()</text><ellipse cx="441" cy="207.3203" fill="#84BE84" rx="3" ry="3" style="stroke:#038048;stroke-width:1.0;"/><text fill="#000000" font-family="sans-serif" font-size="14" lengthAdjust="spacing" textLength="107" x="450" y="210.667">returnTokens()</text><ellipse cx="441" cy="223.6172" fill="#84BE84" rx="3" ry="3" style="stroke:#038048;stroke-width:1.0;"/><text fill="#000000" font-family="sans-serif" font-size="14" lengthAdjust="spacing" textLength="168" x="450" y="226.9639">updateExchangeRatio()</text><ellipse cx="441" cy="239.9141" fill="#84BE84" rx="3" ry="3" style="stroke:#038048;stroke-width:1.0;"/><text fill="#000000" font-family="sans-serif" font-size="14" lengthAdjust="spacing" textLength="164" x="450" y="243.2607">updateReturnPenalty()</text><ellipse cx="441" cy="256.2109" fill="#84BE84" rx="3" ry="3" style="stroke:#038048;stroke-width:1.0;"/><text fill="#000000" font-family="sans-serif" font-size="14" lengthAdjust="spacing" textLength="192" x="450" y="259.5576">updateMinReturnAmount()</text><ellipse cx="441" cy="272.5078" fill="#84BE84" rx="3" ry="3" style="stroke:#038048;stroke-width:1.0;"/><text fill="#000000" font-family="sans-serif" font-size="14" lengthAdjust="spacing" textLength="87" x="450" y="275.8545">updateFee()</text><ellipse cx="441" cy="288.8047" fill="#84BE84" rx="3" ry="3" style="stroke:#038048;stroke-width:1.0;"/><text fill="#000000" font-family="sans-serif" font-size="14" lengthAdjust="spacing" textLength="111" x="450" y="292.1514">getProperties()</text><ellipse cx="441" cy="305.1016" fill="#84BE84" rx="3" ry="3" style="stroke:#038048;stroke-width:1.0;"/><text fill="#000000" font-family="sans-serif" font-size="14" lengthAdjust="spacing" textLength="75" x="450" y="308.4482">withdraw()</text><ellipse cx="441" cy="321.3984" fill="#84BE84" rx="3" ry="3" style="stroke:#038048;stroke-width:1.0;"/><text fill="#000000" font-family="sans-serif" font-size="14" lengthAdjust="spacing" textLength="120" x="450" y="324.7451">withdrawToken()</text><ellipse cx="441" cy="337.6953" fill="#84BE84" rx="3" ry="3" style="stroke:#038048;stroke-width:1.0;"/><text fill="#000000" font-family="sans-serif" font-size="14" lengthAdjust="spacing" textLength="130" x="450" y="341.042">withdrawCustom()</text></g><!--class SharedStruct--><g id="elem_SharedStruct"><rect codeLine="35" fill="#F1F1F1" height="96.8906" id="SharedStruct" rx="2.5" ry="2.5" style="stroke:#181818;stroke-width:0.5;" width="180" x="7" y="679"/><ellipse cx="45.85" cy="695" fill="#ADD1B2" rx="11" ry="11" style="stroke:#181818;stroke-width:1.0;"/><path d="M48.1938,690.6719 C47.2563,690.2344 46.6625,690.0938 45.7875,690.0938 C43.1625,690.0938 41.1625,692.1719 41.1625,694.8906 L41.1625,696.0156 C41.1625,698.5938 43.2719,700.4844 46.1625,700.4844 C47.3813,700.4844 48.5375,700.1875 49.2875,699.6406 C49.8656,699.2344 50.1938,698.7813 50.1938,698.3906 C50.1938,697.9375 49.8031,697.5469 49.3344,697.5469 C49.1156,697.5469 48.9125,697.625 48.725,697.8125 C48.2719,698.2969 48.2719,698.2969 48.0844,698.3906 C47.6625,698.6563 46.975,698.7813 46.2094,698.7813 C44.1625,698.7813 42.8656,697.6875 42.8656,695.9844 L42.8656,694.8906 C42.8656,693.1094 44.1156,691.7969 45.85,691.7969 C46.4281,691.7969 47.0375,691.9531 47.5063,692.2031 C47.9906,692.4844 48.1625,692.7031 48.2563,693.1094 C48.3188,693.5156 48.35,693.6406 48.4906,693.7656 C48.6313,693.9063 48.8656,694.0156 49.0844,694.0156 C49.35,694.0156 49.6156,693.875 49.7875,693.6563 C49.8969,693.5 49.9281,693.3125 49.9281,692.8906 L49.9281,691.4688 C49.9281,691.0313 49.9125,690.9063 49.8188,690.75 C49.6625,690.4844 49.3813,690.3438 49.0844,690.3438 C48.7875,690.3438 48.5844,690.4375 48.3656,690.75 L48.1938,690.6719 Z " fill="#000000"/><text fill="#000000" font-family="sans-serif" font-size="14" lengthAdjust="spacing" textLength="95" x="65.15" y="699.8467">SharedStruct</text><line style="stroke:#181818;stroke-width:0.5;" x1="8" x2="186" y1="711" y2="711"/><text fill="#000000" font-family="sans-serif" font-size="14" lengthAdjust="spacing" textLength="121" x="13" y="727.9951">PropertyAddress</text><text fill="#000000" font-family="sans-serif" font-size="14" lengthAdjust="spacing" textLength="98" x="13" y="744.292">PropertyData</text><text fill="#000000" font-family="sans-serif" font-size="14" lengthAdjust="spacing" textLength="168" x="13" y="760.5889">PropertyOwnerContact</text><line style="stroke:#181818;stroke-width:0.5;" x1="8" x2="186" y1="767.8906" y2="767.8906"/></g><!--class TestToken--><g id="elem_TestToken"><rect codeLine="41" fill="#F1F1F1" height="145.7813" id="TestToken" rx="2.5" ry="2.5" style="stroke:#181818;stroke-width:0.5;" width="284" x="592" y="440.5"/><ellipse cx="691.25" cy="456.5" fill="#ADD1B2" rx="11" ry="11" style="stroke:#181818;stroke-width:1.0;"/><path d="M693.5938,452.1719 C692.6563,451.7344 692.0625,451.5938 691.1875,451.5938 C688.5625,451.5938 686.5625,453.6719 686.5625,456.3906 L686.5625,457.5156 C686.5625,460.0938 688.6719,461.9844 691.5625,461.9844 C692.7813,461.9844 693.9375,461.6875 694.6875,461.1406 C695.2656,460.7344 695.5938,460.2813 695.5938,459.8906 C695.5938,459.4375 695.2031,459.0469 694.7344,459.0469 C694.5156,459.0469 694.3125,459.125 694.125,459.3125 C693.6719,459.7969 693.6719,459.7969 693.4844,459.8906 C693.0625,460.1563 692.375,460.2813 691.6094,460.2813 C689.5625,460.2813 688.2656,459.1875 688.2656,457.4844 L688.2656,456.3906 C688.2656,454.6094 689.5156,453.2969 691.25,453.2969 C691.8281,453.2969 692.4375,453.4531 692.9063,453.7031 C693.3906,453.9844 693.5625,454.2031 693.6563,454.6094 C693.7188,455.0156 693.75,455.1406 693.8906,455.2656 C694.0313,455.4063 694.2656,455.5156 694.4844,455.5156 C694.75,455.5156 695.0156,455.375 695.1875,455.1563 C695.2969,455 695.3281,454.8125 695.3281,454.3906 L695.3281,452.9688 C695.3281,452.5313 695.3125,452.4063 695.2188,452.25 C695.0625,451.9844 694.7813,451.8438 694.4844,451.8438 C694.1875,451.8438 693.9844,451.9375 693.7656,452.25 L693.5938,452.1719 Z " fill="#000000"/><text fill="#000000" font-family="sans-serif" font-size="14" lengthAdjust="spacing" textLength="77" x="711.75" y="461.3467">TestToken</text><line style="stroke:#181818;stroke-width:0.5;" x1="593" x2="875" y1="472.5" y2="472.5"/><rect fill="none" height="6" style="stroke:#C82930;stroke-width:1.0;" width="6" x="600" y="483.1484"/><text fill="#000000" font-family="sans-serif" font-size="14" lengthAdjust="spacing" textLength="163" x="612" y="489.4951">DEFAULT_ADMIN_ROLE</text><rect fill="none" height="6" style="stroke:#C82930;stroke-width:1.0;" width="6" x="600" y="499.4453"/><text fill="#000000" font-family="sans-serif" font-size="14" lengthAdjust="spacing" textLength="99" x="612" y="505.792">MINTER_ROLE</text><rect fill="none" height="6" style="stroke:#C82930;stroke-width:1.0;" width="6" x="600" y="515.7422"/><text fill="#000000" font-family="sans-serif" font-size="14" lengthAdjust="spacing" textLength="103" x="612" y="522.0889">BURNER_ROLE</text><line style="stroke:#181818;stroke-width:0.5;" x1="593" x2="875" y1="529.3906" y2="529.3906"/><ellipse cx="603" cy="543.0391" fill="#84BE84" rx="3" ry="3" style="stroke:#038048;stroke-width:1.0;"/><text fill="#000000" font-family="sans-serif" font-size="14" lengthAdjust="spacing" textLength="112" x="612" y="546.3857">{constructor}()</text><ellipse cx="603" cy="559.3359" fill="#84BE84" rx="3" ry="3" style="stroke:#038048;stroke-width:1.0;"/><text fill="#000000" font-family="sans-serif" font-size="14" lengthAdjust="spacing" textLength="240" x="612" y="562.6826">mint(address to, uint256 amount)</text><ellipse cx="603" cy="575.6328" fill="#84BE84" rx="3" ry="3" style="stroke:#038048;stroke-width:1.0;"/><text fill="#000000" font-family="sans-serif" font-size="14" lengthAdjust="spacing" textLength="258" x="612" y="578.9795">burn(address from, uint256 amount)</text></g><!--class Ownable--><g id="elem_Ownable"><rect fill="#F1F1F1" height="48" id="Ownable" rx="2.5" ry="2.5" style="stroke:#181818;stroke-width:0.5;" width="94" x="338" y="703.5"/><ellipse cx="353" cy="719.5" fill="#ADD1B2" rx="11" ry="11" style="stroke:#181818;stroke-width:1.0;"/><path d="M355.3438,715.1719 C354.4063,714.7344 353.8125,714.5938 352.9375,714.5938 C350.3125,714.5938 348.3125,716.6719 348.3125,719.3906 L348.3125,720.5156 C348.3125,723.0938 350.4219,724.9844 353.3125,724.9844 C354.5313,724.9844 355.6875,724.6875 356.4375,724.1406 C357.0156,723.7344 357.3438,723.2813 357.3438,722.8906 C357.3438,722.4375 356.9531,722.0469 356.4844,722.0469 C356.2656,722.0469 356.0625,722.125 355.875,722.3125 C355.4219,722.7969 355.4219,722.7969 355.2344,722.8906 C354.8125,723.1563 354.125,723.2813 353.3594,723.2813 C351.3125,723.2813 350.0156,722.1875 350.0156,720.4844 L350.0156,719.3906 C350.0156,717.6094 351.2656,716.2969 353,716.2969 C353.5781,716.2969 354.1875,716.4531 354.6563,716.7031 C355.1406,716.9844 355.3125,717.2031 355.4063,717.6094 C355.4688,718.0156 355.5,718.1406 355.6406,718.2656 C355.7813,718.4063 356.0156,718.5156 356.2344,718.5156 C356.5,718.5156 356.7656,718.375 356.9375,718.1563 C357.0469,718 357.0781,717.8125 357.0781,717.3906 L357.0781,715.9688 C357.0781,715.5313 357.0625,715.4063 356.9688,715.25 C356.8125,714.9844 356.5313,714.8438 356.2344,714.8438 C355.9375,714.8438 355.7344,714.9375 355.5156,715.25 L355.3438,715.1719 Z " fill="#000000"/><text fill="#000000" font-family="sans-serif" font-size="14" lengthAdjust="spacing" textLength="62" x="367" y="724.3467">Ownable</text><line style="stroke:#181818;stroke-width:0.5;" x1="339" x2="431" y1="735.5" y2="735.5"/><line style="stroke:#181818;stroke-width:0.5;" x1="339" x2="431" y1="743.5" y2="743.5"/></g><!--class IERC20--><g id="elem_IERC20"><rect fill="#F1F1F1" height="48" id="IERC20" rx="2.5" ry="2.5" style="stroke:#181818;stroke-width:0.5;" width="82" x="911" y="489.5"/><ellipse cx="926" cy="505.5" fill="#ADD1B2" rx="11" ry="11" style="stroke:#181818;stroke-width:1.0;"/><path d="M928.3438,501.1719 C927.4063,500.7344 926.8125,500.5938 925.9375,500.5938 C923.3125,500.5938 921.3125,502.6719 921.3125,505.3906 L921.3125,506.5156 C921.3125,509.0938 923.4219,510.9844 926.3125,510.9844 C927.5313,510.9844 928.6875,510.6875 929.4375,510.1406 C930.0156,509.7344 930.3438,509.2813 930.3438,508.8906 C930.3438,508.4375 929.9531,508.0469 929.4844,508.0469 C929.2656,508.0469 929.0625,508.125 928.875,508.3125 C928.4219,508.7969 928.4219,508.7969 928.2344,508.8906 C927.8125,509.1563 927.125,509.2813 926.3594,509.2813 C924.3125,509.2813 923.0156,508.1875 923.0156,506.4844 L923.0156,505.3906 C923.0156,503.6094 924.2656,502.2969 926,502.2969 C926.5781,502.2969 927.1875,502.4531 927.6563,502.7031 C928.1406,502.9844 928.3125,503.2031 928.4063,503.6094 C928.4688,504.0156 928.5,504.1406 928.6406,504.2656 C928.7813,504.4063 929.0156,504.5156 929.2344,504.5156 C929.5,504.5156 929.7656,504.375 929.9375,504.1563 C930.0469,504 930.0781,503.8125 930.0781,503.3906 L930.0781,501.9688 C930.0781,501.5313 930.0625,501.4063 929.9688,501.25 C929.8125,500.9844 929.5313,500.8438 929.2344,500.8438 C928.9375,500.8438 928.7344,500.9375 928.5156,501.25 L928.3438,501.1719 Z " fill="#000000"/><text fill="#000000" font-family="sans-serif" font-size="14" lengthAdjust="spacing" textLength="50" x="940" y="510.3467">IERC20</text><line style="stroke:#181818;stroke-width:0.5;" x1="912" x2="992" y1="521.5" y2="521.5"/><line style="stroke:#181818;stroke-width:0.5;" x1="912" x2="992" y1="529.5" y2="529.5"/></g><!--class ERC20--><g id="elem_ERC20"><rect fill="#F1F1F1" height="48" id="ERC20" rx="2.5" ry="2.5" style="stroke:#181818;stroke-width:0.5;" width="78" x="550" y="703.5"/><ellipse cx="565" cy="719.5" fill="#ADD1B2" rx="11" ry="11" style="stroke:#181818;stroke-width:1.0;"/><path d="M567.3438,715.1719 C566.4063,714.7344 565.8125,714.5938 564.9375,714.5938 C562.3125,714.5938 560.3125,716.6719 560.3125,719.3906 L560.3125,720.5156 C560.3125,723.0938 562.4219,724.9844 565.3125,724.9844 C566.5313,724.9844 567.6875,724.6875 568.4375,724.1406 C569.0156,723.7344 569.3438,723.2813 569.3438,722.8906 C569.3438,722.4375 568.9531,722.0469 568.4844,722.0469 C568.2656,722.0469 568.0625,722.125 567.875,722.3125 C567.4219,722.7969 567.4219,722.7969 567.2344,722.8906 C566.8125,723.1563 566.125,723.2813 565.3594,723.2813 C563.3125,723.2813 562.0156,722.1875 562.0156,720.4844 L562.0156,719.3906 C562.0156,717.6094 563.2656,716.2969 565,716.2969 C565.5781,716.2969 566.1875,716.4531 566.6563,716.7031 C567.1406,716.9844 567.3125,717.2031 567.4063,717.6094 C567.4688,718.0156 567.5,718.1406 567.6406,718.2656 C567.7813,718.4063 568.0156,718.5156 568.2344,718.5156 C568.5,718.5156 568.7656,718.375 568.9375,718.1563 C569.0469,718 569.0781,717.8125 569.0781,717.3906 L569.0781,715.9688 C569.0781,715.5313 569.0625,715.4063 568.9688,715.25 C568.8125,714.9844 568.5313,714.8438 568.2344,714.8438 C567.9375,714.8438 567.7344,714.9375 567.5156,715.25 L567.3438,715.1719 Z " fill="#000000"/><text fill="#000000" font-family="sans-serif" font-size="14" lengthAdjust="spacing" textLength="46" x="579" y="724.3467">ERC20</text><line style="stroke:#181818;stroke-width:0.5;" x1="551" x2="627" y1="735.5" y2="735.5"/><line style="stroke:#181818;stroke-width:0.5;" x1="551" x2="627" y1="743.5" y2="743.5"/></g><!--class ERC20Burnable--><g id="elem_ERC20Burnable"><rect fill="#F1F1F1" height="48" id="ERC20Burnable" rx="2.5" ry="2.5" style="stroke:#181818;stroke-width:0.5;" width="142" x="663" y="703.5"/><ellipse cx="678" cy="719.5" fill="#ADD1B2" rx="11" ry="11" style="stroke:#181818;stroke-width:1.0;"/><path d="M680.3438,715.1719 C679.4063,714.7344 678.8125,714.5938 677.9375,714.5938 C675.3125,714.5938 673.3125,716.6719 673.3125,719.3906 L673.3125,720.5156 C673.3125,723.0938 675.4219,724.9844 678.3125,724.9844 C679.5313,724.9844 680.6875,724.6875 681.4375,724.1406 C682.0156,723.7344 682.3438,723.2813 682.3438,722.8906 C682.3438,722.4375 681.9531,722.0469 681.4844,722.0469 C681.2656,722.0469 681.0625,722.125 680.875,722.3125 C680.4219,722.7969 680.4219,722.7969 680.2344,722.8906 C679.8125,723.1563 679.125,723.2813 678.3594,723.2813 C676.3125,723.2813 675.0156,722.1875 675.0156,720.4844 L675.0156,719.3906 C675.0156,717.6094 676.2656,716.2969 678,716.2969 C678.5781,716.2969 679.1875,716.4531 679.6563,716.7031 C680.1406,716.9844 680.3125,717.2031 680.4063,717.6094 C680.4688,718.0156 680.5,718.1406 680.6406,718.2656 C680.7813,718.4063 681.0156,718.5156 681.2344,718.5156 C681.5,718.5156 681.7656,718.375 681.9375,718.1563 C682.0469,718 682.0781,717.8125 682.0781,717.3906 L682.0781,715.9688 C682.0781,715.5313 682.0625,715.4063 681.9688,715.25 C681.8125,714.9844 681.5313,714.8438 681.2344,714.8438 C680.9375,714.8438 680.7344,714.9375 680.5156,715.25 L680.3438,715.1719 Z " fill="#000000"/><text fill="#000000" font-family="sans-serif" font-size="14" lengthAdjust="spacing" textLength="110" x="692" y="724.3467">ERC20Burnable</text><line style="stroke:#181818;stroke-width:0.5;" x1="664" x2="804" y1="735.5" y2="735.5"/><line style="stroke:#181818;stroke-width:0.5;" x1="664" x2="804" y1="743.5" y2="743.5"/></g><!--class AccessControl--><g id="elem_AccessControl"><rect fill="#F1F1F1" height="48" id="AccessControl" rx="2.5" ry="2.5" style="stroke:#181818;stroke-width:0.5;" width="135" x="840.5" y="703.5"/><ellipse cx="855.5" cy="719.5" fill="#ADD1B2" rx="11" ry="11" style="stroke:#181818;stroke-width:1.0;"/><path d="M857.8438,715.1719 C856.9063,714.7344 856.3125,714.5938 855.4375,714.5938 C852.8125,714.5938 850.8125,716.6719 850.8125,719.3906 L850.8125,720.5156 C850.8125,723.0938 852.9219,724.9844 855.8125,724.9844 C857.0313,724.9844 858.1875,724.6875 858.9375,724.1406 C859.5156,723.7344 859.8438,723.2813 859.8438,722.8906 C859.8438,722.4375 859.4531,722.0469 858.9844,722.0469 C858.7656,722.0469 858.5625,722.125 858.375,722.3125 C857.9219,722.7969 857.9219,722.7969 857.7344,722.8906 C857.3125,723.1563 856.625,723.2813 855.8594,723.2813 C853.8125,723.2813 852.5156,722.1875 852.5156,720.4844 L852.5156,719.3906 C852.5156,717.6094 853.7656,716.2969 855.5,716.2969 C856.0781,716.2969 856.6875,716.4531 857.1563,716.7031 C857.6406,716.9844 857.8125,717.2031 857.9063,717.6094 C857.9688,718.0156 858,718.1406 858.1406,718.2656 C858.2813,718.4063 858.5156,718.5156 858.7344,718.5156 C859,718.5156 859.2656,718.375 859.4375,718.1563 C859.5469,718 859.5781,717.8125 859.5781,717.3906 L859.5781,715.9688 C859.5781,715.5313 859.5625,715.4063 859.4688,715.25 C859.3125,714.9844 859.0313,714.8438 858.7344,714.8438 C858.4375,714.8438 858.2344,714.9375 858.0156,715.25 L857.8438,715.1719 Z " fill="#000000"/><text fill="#000000" font-family="sans-serif" font-size="14" lengthAdjust="spacing" textLength="103" x="869.5" y="724.3467">AccessControl</text><line style="stroke:#181818;stroke-width:0.5;" x1="841.5" x2="974.5" y1="735.5" y2="735.5"/><line style="stroke:#181818;stroke-width:0.5;" x1="841.5" x2="974.5" y1="743.5" y2="743.5"/></g><!--link Property to SharedStruct--><g id="link_Property_SharedStruct"><path codeLine="50" d="M200.701,619.258 C185.885,634.58 171.036,649.936 157.392,664.046 " fill="none" id="Property-to-SharedStruct" style="stroke:#181818;stroke-width:1.0;"/><polygon fill="none" points="162.053,669.296,143.118,678.8075,151.988,659.564,162.053,669.296" style="stroke:#181818;stroke-width:1.0;"/></g><!--link Property to Ownable--><g id="link_Property_Ownable"><path codeLine="51" d="M343.014,619.258 C352.083,642.423 361.183,665.667 368.582,684.5643 " fill="none" id="Property-to-Ownable" style="stroke:#181818;stroke-width:1.0;"/><polygon fill="none" points="375.216,682.3091,375.989,703.4846,362.18,687.413,375.216,682.3091" style="stroke:#181818;stroke-width:1.0;"/></g><!--link PropertyManager to SharedStruct--><g id="link_PropertyManager_SharedStruct"><path codeLine="52" d="M429.737,201.996 C325.015,230.924 172.612,291.292 101,408 C54.3117,484.09 64.9159,590.868 79.1213,659.373 " fill="none" id="PropertyManager-to-SharedStruct" style="stroke:#181818;stroke-width:1.0;"/><polygon fill="none" points="85.9549,657.857,83.4837,678.9018,72.2917,660.909,85.9549,657.857" style="stroke:#181818;stroke-width:1.0;"/></g><!--link PropertyManager to Ownable--><g id="link_PropertyManager_Ownable"><path codeLine="53" d="M553.69,348.076 C554.164,433.344 543.819,535.931 503,619 C488.769,647.96 463.072,672.815 439.284,691.3084 " fill="none" id="PropertyManager-to-Ownable" style="stroke:#181818;stroke-width:1.0;"/><polygon fill="none" points="443.154,697.151,422.889,703.3417,434.871,685.8647,443.154,697.151" style="stroke:#181818;stroke-width:1.0;"/></g><!--link PropertyManager to TestToken--><g id="link_PropertyManager_TestToken"><path codeLine="54" d="M638.214,348.435 C653.21,374.121 668.152,399.714 681.62,422.783 " fill="none" id="PropertyManager-to-TestToken" style="stroke:#181818;stroke-width:1.0;"/><polygon fill="none" points="687.804,419.491,691.843,440.292,675.714,426.55,687.804,419.491" style="stroke:#181818;stroke-width:1.0;"/></g><!--link PropertyManager to Property--><g id="link_PropertyManager_Property"><path codeLine="55" d="M429.865,332.302 C415.864,352.033 401.689,372.01 388.126,391.124 " fill="none" id="PropertyManager-to-Property" style="stroke:#181818;stroke-width:1.0;"/><polygon fill="none" points="393.667,395.411,376.384,407.671,382.249,387.31,393.667,395.411" style="stroke:#181818;stroke-width:1.0;"/></g><!--link PropertyManager to IERC20--><g id="link_PropertyManager_IERC20"><path codeLine="56" d="M648.39,230.931 C724.238,271.347 823.83,332.948 894,408 C911.075,426.263 924.925,450.484 934.804,471.009 " fill="none" id="PropertyManager-to-IERC20" style="stroke:#181818;stroke-width:1.0;"/><polygon fill="none" points="941.185,468.131,943.034,489.24,928.425,473.891,941.185,468.131" style="stroke:#181818;stroke-width:1.0;"/></g><!--link TestToken to ERC20--><g id="link_TestToken_ERC20"><path codeLine="57" d="M684.707,586.569 C661.943,619.852 635.767,658.123 616.55,686.2194 " fill="none" id="TestToken-to-ERC20" style="stroke:#181818;stroke-width:1.0;"/><polygon fill="none" points="622.102,690.5026,605.033,703.0588,610.546,682.5989,622.102,690.5026" style="stroke:#181818;stroke-width:1.0;"/></g><!--link TestToken to ERC20Burnable--><g id="link_TestToken_ERC20Burnable"><path codeLine="58" d="M734,586.569 C734,618.584 734,655.214 734,682.9649 " fill="none" id="TestToken-to-ERC20Burnable" style="stroke:#181818;stroke-width:1.0;"/><polygon fill="none" points="741,683.0588,734,703.0588,727,683.0588,741,683.0588" style="stroke:#181818;stroke-width:1.0;"/></g><!--link TestToken to AccessControl--><g id="link_TestToken_AccessControl"><path codeLine="59" d="M793.151,586.569 C820.858,620.327 852.777,659.217 875.923,687.4172 " fill="none" id="TestToken-to-AccessControl" style="stroke:#181818;stroke-width:1.0;"/><polygon fill="none" points="881.483,683.1581,888.761,703.0588,870.661,692.0402,881.483,683.1581" style="stroke:#181818;stroke-width:1.0;"/></g><!--SRC=[VLHTRu8m57tdL_3eifai9jlZ4gQOcFX1K9-MnTHonMRGad89Cyx_lefGInLvwpa7Ukwvzq8JakTk84K64W_kqN7LqzU05qKIb21hdotLY23HalF1uXSb1paK70b5hJF1Mhz4oNZyzUsobCIG3rbK4S_kaGgUeome2ddgFTLeaKK4mRBQmPvTTL2c4KioQNneF0OqmPFZq5Q2Cy8LAtMG4pyS3bvTja78SIL-W5lPg6hhH1WqkHQCu-3jtTq1M0ZyqZtXCOG4cR0u2LX87W0d2HuiBcKyh6Wl5GN7Xx5I2QhqEPIDHSraXLJNvr3LSKtwSh45NWBqJRyM5vf-BMxMzcknOm2p8O7EJwCbmtqaINa3L2vlq66HeqZDVYxtH4AqhCAfcndSsO707lfxGtNzwgeP0ZqV8t_ihQUhZJUQJUQRS37rQq8TLtve8f_hS6uYNVrJlSOUgHSNnOiU0b9bsSYsAbqjsqcHtWgLR_rdwFV_FbgfM9Ggc6mJSEn5w7wlfNZukexjFjs0zzdB1ZhNw2kq6_nKkLHMBDAZL2LrRgaKoJy0]--></g></svg>