<?xml version="1.0" encoding="us-ascii" standalone="no"?><svg xmlns="http://www.w3.org/2000/svg" xmlns:xlink="http://www.w3.org/1999/xlink" contentStyleType="text/css" height="522px" preserveAspectRatio="none" style="width:446px;height:522px;background:#FFFFFF;" version="1.1" viewBox="0 0 446 522" width="446px" zoomAndPan="magnify"><defs/><g><!--class deployProperty--><g id="elem_deployProperty"><rect codeLine="1" fill="#F1F1F1" height="129.4844" id="deployProperty" rx="2.5" ry="2.5" style="stroke:#181818;stroke-width:0.5;" width="432" x="7" y="7"/><ellipse cx="162.25" cy="23" fill="#ADD1B2" rx="11" ry="11" style="stroke:#181818;stroke-width:1.0;"/><path d="M164.5938,18.6719 C163.6563,18.2344 163.0625,18.0938 162.1875,18.0938 C159.5625,18.0938 157.5625,20.1719 157.5625,22.8906 L157.5625,24.0156 C157.5625,26.5938 159.6719,28.4844 162.5625,28.4844 C163.7813,28.4844 164.9375,28.1875 165.6875,27.6406 C166.2656,27.2344 166.5938,26.7813 166.5938,26.3906 C166.5938,25.9375 166.2031,25.5469 165.7344,25.5469 C165.5156,25.5469 165.3125,25.625 165.125,25.8125 C164.6719,26.2969 164.6719,26.2969 164.4844,26.3906 C164.0625,26.6563 163.375,26.7813 162.6094,26.7813 C160.5625,26.7813 159.2656,25.6875 159.2656,23.9844 L159.2656,22.8906 C159.2656,21.1094 160.5156,19.7969 162.25,19.7969 C162.8281,19.7969 163.4375,19.9531 163.9063,20.2031 C164.3906,20.4844 164.5625,20.7031 164.6563,21.1094 C164.7188,21.5156 164.75,21.6406 164.8906,21.7656 C165.0313,21.9063 165.2656,22.0156 165.4844,22.0156 C165.75,22.0156 166.0156,21.875 166.1875,21.6563 C166.2969,21.5 166.3281,21.3125 166.3281,20.8906 L166.3281,19.4688 C166.3281,19.0313 166.3125,18.9063 166.2188,18.75 C166.0625,18.4844 165.7813,18.3438 165.4844,18.3438 C165.1875,18.3438 164.9844,18.4375 164.7656,18.75 L164.5938,18.6719 Z " fill="#000000"/><text fill="#000000" font-family="sans-serif" font-size="14" lengthAdjust="spacing" textLength="113" x="182.75" y="27.8467">deployProperty</text><line style="stroke:#181818;stroke-width:0.5;" x1="8" x2="438" y1="39" y2="39"/><rect fill="none" height="6" style="stroke:#C82930;stroke-width:1.0;" width="6" x="15" y="49.6484"/><text fill="#000000" font-family="sans-serif" font-size="14" lengthAdjust="spacing" textLength="244" x="27" y="55.9951">hre: HardhatRuntimeEnvironment</text><rect fill="none" height="6" style="stroke:#C82930;stroke-width:1.0;" width="6" x="15" y="65.9453"/><text fill="#000000" font-family="sans-serif" font-size="14" lengthAdjust="spacing" textLength="132" x="27" y="72.292">deployer: Account</text><rect fill="none" height="6" style="stroke:#C82930;stroke-width:1.0;" width="6" x="15" y="82.2422"/><text fill="#000000" font-family="sans-serif" font-size="14" lengthAdjust="spacing" textLength="74" x="27" y="88.5889">args: any[]</text><line style="stroke:#181818;stroke-width:0.5;" x1="8" x2="438" y1="95.8906" y2="95.8906"/><ellipse cx="18" cy="109.5391" fill="#84BE84" rx="3" ry="3" style="stroke:#038048;stroke-width:1.0;"/><text fill="#000000" font-family="sans-serif" font-size="14" lengthAdjust="spacing" textLength="406" x="27" y="112.8857">deployProperty(hre: HardhatRuntimeEnvironment): void</text><ellipse cx="18" cy="125.8359" fill="#84BE84" rx="3" ry="3" style="stroke:#038048;stroke-width:1.0;"/><text fill="#000000" font-family="sans-serif" font-size="14" lengthAdjust="spacing" textLength="90" x="27" y="129.1826">verify(): void</text></g><!--class PropertyManager--><g id="elem_PropertyManager"><rect codeLine="9" fill="#F1F1F1" height="145.7813" id="PropertyManager" rx="2.5" ry="2.5" style="stroke:#181818;stroke-width:0.5;" width="249" x="98.5" y="196"/><ellipse cx="156.25" cy="212" fill="#ADD1B2" rx="11" ry="11" style="stroke:#181818;stroke-width:1.0;"/><path d="M158.5938,207.6719 C157.6563,207.2344 157.0625,207.0938 156.1875,207.0938 C153.5625,207.0938 151.5625,209.1719 151.5625,211.8906 L151.5625,213.0156 C151.5625,215.5938 153.6719,217.4844 156.5625,217.4844 C157.7813,217.4844 158.9375,217.1875 159.6875,216.6406 C160.2656,216.2344 160.5938,215.7813 160.5938,215.3906 C160.5938,214.9375 160.2031,214.5469 159.7344,214.5469 C159.5156,214.5469 159.3125,214.625 159.125,214.8125 C158.6719,215.2969 158.6719,215.2969 158.4844,215.3906 C158.0625,215.6563 157.375,215.7813 156.6094,215.7813 C154.5625,215.7813 153.2656,214.6875 153.2656,212.9844 L153.2656,211.8906 C153.2656,210.1094 154.5156,208.7969 156.25,208.7969 C156.8281,208.7969 157.4375,208.9531 157.9063,209.2031 C158.3906,209.4844 158.5625,209.7031 158.6563,210.1094 C158.7188,210.5156 158.75,210.6406 158.8906,210.7656 C159.0313,210.9063 159.2656,211.0156 159.4844,211.0156 C159.75,211.0156 160.0156,210.875 160.1875,210.6563 C160.2969,210.5 160.3281,210.3125 160.3281,209.8906 L160.3281,208.4688 C160.3281,208.0313 160.3125,207.9063 160.2188,207.75 C160.0625,207.4844 159.7813,207.3438 159.4844,207.3438 C159.1875,207.3438 158.9844,207.4375 158.7656,207.75 L158.5938,207.6719 Z " fill="#000000"/><text fill="#000000" font-family="sans-serif" font-size="14" lengthAdjust="spacing" textLength="125" x="176.75" y="216.8467">PropertyManager</text><line style="stroke:#181818;stroke-width:0.5;" x1="99.5" x2="346.5" y1="228" y2="228"/><rect fill="none" height="6" style="stroke:#C82930;stroke-width:1.0;" width="6" x="106.5" y="238.6484"/><text fill="#000000" font-family="sans-serif" font-size="14" lengthAdjust="spacing" textLength="91" x="118.5" y="244.9951">FEE: number</text><rect fill="none" height="6" style="stroke:#C82930;stroke-width:1.0;" width="6" x="106.5" y="254.9453"/><text fill="#000000" font-family="sans-serif" font-size="14" lengthAdjust="spacing" textLength="219" x="118.5" y="261.292">TEST_TOKEN_ADDRESS: string</text><rect fill="none" height="6" style="stroke:#C82930;stroke-width:1.0;" width="6" x="106.5" y="271.2422"/><text fill="#000000" font-family="sans-serif" font-size="14" lengthAdjust="spacing" textLength="195" x="118.5" y="277.5889">EXCHANGE_RATIO: number</text><rect fill="none" height="6" style="stroke:#C82930;stroke-width:1.0;" width="6" x="106.5" y="287.5391"/><text fill="#000000" font-family="sans-serif" font-size="14" lengthAdjust="spacing" textLength="193" x="118.5" y="293.8857">RETURN_PENALTY: number</text><rect fill="none" height="6" style="stroke:#C82930;stroke-width:1.0;" width="6" x="106.5" y="303.8359"/><text fill="#000000" font-family="sans-serif" font-size="14" lengthAdjust="spacing" textLength="223" x="118.5" y="310.1826">MIN_RETURN_AMOUNT: number</text><line style="stroke:#181818;stroke-width:0.5;" x1="99.5" x2="346.5" y1="317.4844" y2="317.4844"/><ellipse cx="109.5" cy="331.1328" fill="#84BE84" rx="3" ry="3" style="stroke:#038048;stroke-width:1.0;"/><text fill="#000000" font-family="sans-serif" font-size="14" lengthAdjust="spacing" textLength="162" x="118.5" y="334.4795">deployProperty(): void</text></g><!--class Property--><g id="elem_Property"><rect codeLine="18" fill="#F1F1F1" height="113.1875" id="Property" rx="2.5" ry="2.5" style="stroke:#181818;stroke-width:0.5;" width="239" x="103.5" y="402"/><ellipse cx="186.75" cy="418" fill="#ADD1B2" rx="11" ry="11" style="stroke:#181818;stroke-width:1.0;"/><path d="M189.0938,413.6719 C188.1563,413.2344 187.5625,413.0938 186.6875,413.0938 C184.0625,413.0938 182.0625,415.1719 182.0625,417.8906 L182.0625,419.0156 C182.0625,421.5938 184.1719,423.4844 187.0625,423.4844 C188.2813,423.4844 189.4375,423.1875 190.1875,422.6406 C190.7656,422.2344 191.0938,421.7813 191.0938,421.3906 C191.0938,420.9375 190.7031,420.5469 190.2344,420.5469 C190.0156,420.5469 189.8125,420.625 189.625,420.8125 C189.1719,421.2969 189.1719,421.2969 188.9844,421.3906 C188.5625,421.6563 187.875,421.7813 187.1094,421.7813 C185.0625,421.7813 183.7656,420.6875 183.7656,418.9844 L183.7656,417.8906 C183.7656,416.1094 185.0156,414.7969 186.75,414.7969 C187.3281,414.7969 187.9375,414.9531 188.4063,415.2031 C188.8906,415.4844 189.0625,415.7031 189.1563,416.1094 C189.2188,416.5156 189.25,416.6406 189.3906,416.7656 C189.5313,416.9063 189.7656,417.0156 189.9844,417.0156 C190.25,417.0156 190.5156,416.875 190.6875,416.6563 C190.7969,416.5 190.8281,416.3125 190.8281,415.8906 L190.8281,414.4688 C190.8281,414.0313 190.8125,413.9063 190.7188,413.75 C190.5625,413.4844 190.2813,413.3438 189.9844,413.3438 C189.6875,413.3438 189.4844,413.4375 189.2656,413.75 L189.0938,413.6719 Z " fill="#000000"/><text fill="#000000" font-family="sans-serif" font-size="14" lengthAdjust="spacing" textLength="64" x="207.25" y="422.8467">Property</text><line style="stroke:#181818;stroke-width:0.5;" x1="104.5" x2="341.5" y1="434" y2="434"/><rect fill="none" height="6" style="stroke:#C82930;stroke-width:1.0;" width="6" x="111.5" y="444.6484"/><text fill="#000000" font-family="sans-serif" font-size="14" lengthAdjust="spacing" textLength="116" x="123.5" y="450.9951">address: string[]</text><rect fill="none" height="6" style="stroke:#C82930;stroke-width:1.0;" width="6" x="111.5" y="460.9453"/><text fill="#000000" font-family="sans-serif" font-size="14" lengthAdjust="spacing" textLength="159" x="123.5" y="467.292">propertyDetails: any[]</text><rect fill="none" height="6" style="stroke:#C82930;stroke-width:1.0;" width="6" x="111.5" y="477.2422"/><text fill="#000000" font-family="sans-serif" font-size="14" lengthAdjust="spacing" textLength="213" x="123.5" y="483.5889">ownerContactDetails: string[]</text><rect fill="none" height="6" style="stroke:#C82930;stroke-width:1.0;" width="6" x="111.5" y="493.5391"/><text fill="#000000" font-family="sans-serif" font-size="14" lengthAdjust="spacing" textLength="130" x="123.5" y="499.8857">imageCID: string[]</text><line style="stroke:#181818;stroke-width:0.5;" x1="104.5" x2="341.5" y1="507.1875" y2="507.1875"/></g><!--link deployProperty to PropertyManager--><g id="link_deployProperty_PropertyManager"><path codeLine="25" d="M223,136.243 C223,155.298 223,176.321 223,195.873 " fill="none" id="deployProperty-PropertyManager" style="stroke:#181818;stroke-width:1.0;"/><text fill="#000000" font-family="sans-serif" font-size="13" lengthAdjust="spacing" textLength="8" x="214.5375" y="156.6427">1</text><text fill="#000000" font-family="sans-serif" font-size="13" lengthAdjust="spacing" textLength="8" x="214.6063" y="185.0205">1</text></g><!--link PropertyManager to Property--><g id="link_PropertyManager_Property"><path codeLine="26" d="M223,342.224 C223,362.032 223,383.194 223,401.91 " fill="none" id="PropertyManager-Property" style="stroke:#181818;stroke-width:1.0;"/><text fill="#000000" font-family="sans-serif" font-size="13" lengthAdjust="spacing" textLength="8" x="214.6313" y="361.7488">1</text><text fill="#000000" font-family="sans-serif" font-size="13" lengthAdjust="spacing" textLength="8" x="214.4875" y="390.7619">1</text></g><!--SRC=[VL5DQuGm4BtxAyAUjXGFlUOccdQNLbqq2osbIAfJDw29ZD4YfV-zegPKQPjBu7tClBpabMXRKa1JwU64kW4q0_bmo7ZS2m8b1u75HPYaKqRMm5GlKQiQb9arinEG4Y_FTMTXWMLBYL33yyi4NAytxFyVVKL9hsKnEtj0-JRiBVRfEFcKsSuAXH8be0rzonWbggjV0MU0ivHdFBvdKUO5GSBIb9BMe5JbpBD7_-15TonBF7wCrzw4yNCIPISMUG_yQSs5noXRU2-Cpn5VqTi7_ndVvXP5WT2sDjlIcziiiW2CaDMgKrU_Aq1VAoDoyyslxR8Uk_6FmGzyJB3vxjtDZhZkT6rATROb_oBz0W00]--></g></svg>