<?xml version="1.0" encoding="us-ascii" standalone="no"?><svg xmlns="http://www.w3.org/2000/svg" xmlns:xlink="http://www.w3.org/1999/xlink" contentStyleType="text/css" height="782px" preserveAspectRatio="none" style="width:1202px;height:782px;background:#FFFFFF;" version="1.1" viewBox="0 0 1202 782" width="1202px" zoomAndPan="magnify"><defs/><g><!--class Property--><g id="elem_Property"><rect codeLine="1" fill="#F1F1F1" height="210.9688" id="Property" rx="2.5" ry="2.5" style="stroke:#181818;stroke-width:0.5;" width="367" x="627.5" y="408"/><ellipse cx="774.75" cy="424" fill="#ADD1B2" rx="11" ry="11" style="stroke:#181818;stroke-width:1.0;"/><path d="M777.0938,419.6719 C776.1563,419.2344 775.5625,419.0938 774.6875,419.0938 C772.0625,419.0938 770.0625,421.1719 770.0625,423.8906 L770.0625,425.0156 C770.0625,427.5938 772.1719,429.4844 775.0625,429.4844 C776.2813,429.4844 777.4375,429.1875 778.1875,428.6406 C778.7656,428.2344 779.0938,427.7813 779.0938,427.3906 C779.0938,426.9375 778.7031,426.5469 778.2344,426.5469 C778.0156,426.5469 777.8125,426.625 777.625,426.8125 C777.1719,427.2969 777.1719,427.2969 776.9844,427.3906 C776.5625,427.6563 775.875,427.7813 775.1094,427.7813 C773.0625,427.7813 771.7656,426.6875 771.7656,424.9844 L771.7656,423.8906 C771.7656,422.1094 773.0156,420.7969 774.75,420.7969 C775.3281,420.7969 775.9375,420.9531 776.4063,421.2031 C776.8906,421.4844 777.0625,421.7031 777.1563,422.1094 C777.2188,422.5156 777.25,422.6406 777.3906,422.7656 C777.5313,422.9063 777.7656,423.0156 777.9844,423.0156 C778.25,423.0156 778.5156,422.875 778.6875,422.6563 C778.7969,422.5 778.8281,422.3125 778.8281,421.8906 L778.8281,420.4688 C778.8281,420.0313 778.8125,419.9063 778.7188,419.75 C778.5625,419.4844 778.2813,419.3438 777.9844,419.3438 C777.6875,419.3438 777.4844,419.4375 777.2656,419.75 L777.0938,419.6719 Z " fill="#000000"/><text fill="#000000" font-family="sans-serif" font-size="14" lengthAdjust="spacing" textLength="64" x="795.25" y="428.8467">Property</text><line style="stroke:#181818;stroke-width:0.5;" x1="628.5" x2="993.5" y1="440" y2="440"/><rect fill="none" height="6" style="stroke:#C82930;stroke-width:1.0;" width="6" x="635.5" y="450.6484"/><text fill="#000000" font-family="sans-serif" font-size="14" lengthAdjust="spacing" textLength="247" x="647.5" y="456.9951">PropertyAddress propertyAddress</text><rect fill="none" height="6" style="stroke:#C82930;stroke-width:1.0;" width="6" x="635.5" y="466.9453"/><text fill="#000000" font-family="sans-serif" font-size="14" lengthAdjust="spacing" textLength="201" x="647.5" y="473.292">PropertyData propertyData</text><rect fill="none" height="6" style="stroke:#C82930;stroke-width:1.0;" width="6" x="635.5" y="483.2422"/><text fill="#000000" font-family="sans-serif" font-size="14" lengthAdjust="spacing" textLength="341" x="647.5" y="489.5889">PropertyOwnerContact propertyOwnerContact</text><rect fill="none" height="6" style="stroke:#C82930;stroke-width:1.0;" width="6" x="635.5" y="499.5391"/><text fill="#000000" font-family="sans-serif" font-size="14" lengthAdjust="spacing" textLength="132" x="647.5" y="505.8857">String[] imagesCid</text><line style="stroke:#181818;stroke-width:0.5;" x1="628.5" x2="993.5" y1="513.1875" y2="513.1875"/><ellipse cx="638.5" cy="526.8359" fill="#84BE84" rx="3" ry="3" style="stroke:#038048;stroke-width:1.0;"/><text fill="#000000" font-family="sans-serif" font-size="14" lengthAdjust="spacing" textLength="112" x="647.5" y="530.1826">{constructor}()</text><ellipse cx="638.5" cy="543.1328" fill="#84BE84" rx="3" ry="3" style="stroke:#038048;stroke-width:1.0;"/><text fill="#000000" font-family="sans-serif" font-size="14" lengthAdjust="spacing" textLength="182" x="647.5" y="546.4795">updatePropertyAddress()</text><ellipse cx="638.5" cy="559.4297" fill="#84BE84" rx="3" ry="3" style="stroke:#038048;stroke-width:1.0;"/><text fill="#000000" font-family="sans-serif" font-size="14" lengthAdjust="spacing" textLength="159" x="647.5" y="562.7764">updatePropertyData()</text><ellipse cx="638.5" cy="575.7266" fill="#84BE84" rx="3" ry="3" style="stroke:#038048;stroke-width:1.0;"/><text fill="#000000" font-family="sans-serif" font-size="14" lengthAdjust="spacing" textLength="229" x="647.5" y="579.0732">updatePropertyOwnerContact()</text><ellipse cx="638.5" cy="592.0234" fill="#84BE84" rx="3" ry="3" style="stroke:#038048;stroke-width:1.0;"/><text fill="#000000" font-family="sans-serif" font-size="14" lengthAdjust="spacing" textLength="135" x="647.5" y="595.3701">updateImagesCid()</text><ellipse cx="638.5" cy="608.3203" fill="#84BE84" rx="3" ry="3" style="stroke:#038048;stroke-width:1.0;"/><text fill="#000000" font-family="sans-serif" font-size="14" lengthAdjust="spacing" textLength="109" x="647.5" y="611.667">getImagesCid()</text></g><!--class PropertyManager--><g id="elem_PropertyManager"><rect codeLine="14" fill="#F1F1F1" height="341.3438" id="PropertyManager" rx="2.5" ry="2.5" style="stroke:#181818;stroke-width:0.5;" width="218" x="324" y="7"/><ellipse cx="366.45" cy="23" fill="#ADD1B2" rx="11" ry="11" style="stroke:#181818;stroke-width:1.0;"/><path d="M368.7938,18.6719 C367.8563,18.2344 367.2625,18.0938 366.3875,18.0938 C363.7625,18.0938 361.7625,20.1719 361.7625,22.8906 L361.7625,24.0156 C361.7625,26.5938 363.8719,28.4844 366.7625,28.4844 C367.9813,28.4844 369.1375,28.1875 369.8875,27.6406 C370.4656,27.2344 370.7938,26.7813 370.7938,26.3906 C370.7938,25.9375 370.4031,25.5469 369.9344,25.5469 C369.7156,25.5469 369.5125,25.625 369.325,25.8125 C368.8719,26.2969 368.8719,26.2969 368.6844,26.3906 C368.2625,26.6563 367.575,26.7813 366.8094,26.7813 C364.7625,26.7813 363.4656,25.6875 363.4656,23.9844 L363.4656,22.8906 C363.4656,21.1094 364.7156,19.7969 366.45,19.7969 C367.0281,19.7969 367.6375,19.9531 368.1063,20.2031 C368.5906,20.4844 368.7625,20.7031 368.8563,21.1094 C368.9188,21.5156 368.95,21.6406 369.0906,21.7656 C369.2313,21.9063 369.4656,22.0156 369.6844,22.0156 C369.95,22.0156 370.2156,21.875 370.3875,21.6563 C370.4969,21.5 370.5281,21.3125 370.5281,20.8906 L370.5281,19.4688 C370.5281,19.0313 370.5125,18.9063 370.4188,18.75 C370.2625,18.4844 369.9813,18.3438 369.6844,18.3438 C369.3875,18.3438 369.1844,18.4375 368.9656,18.75 L368.7938,18.6719 Z " fill="#000000"/><text fill="#000000" font-family="sans-serif" font-size="14" lengthAdjust="spacing" textLength="125" x="386.55" y="27.8467">PropertyManager</text><line style="stroke:#181818;stroke-width:0.5;" x1="325" x2="541" y1="39" y2="39"/><rect fill="none" height="6" style="stroke:#C82930;stroke-width:1.0;" width="6" x="332" y="49.6484"/><text fill="#000000" font-family="sans-serif" font-size="14" lengthAdjust="spacing" textLength="140" x="344" y="55.9951">IERC20 i_testToken</text><rect fill="none" height="6" style="stroke:#C82930;stroke-width:1.0;" width="6" x="332" y="65.9453"/><text fill="#000000" font-family="sans-serif" font-size="14" lengthAdjust="spacing" textLength="155" x="344" y="72.292">Property[] properties</text><rect fill="none" height="6" style="stroke:#C82930;stroke-width:1.0;" width="6" x="332" y="82.2422"/><text fill="#000000" font-family="sans-serif" font-size="14" lengthAdjust="spacing" textLength="82" x="344" y="88.5889">uint256 fee</text><rect fill="none" height="6" style="stroke:#C82930;stroke-width:1.0;" width="6" x="332" y="98.5391"/><text fill="#000000" font-family="sans-serif" font-size="14" lengthAdjust="spacing" textLength="165" x="344" y="104.8857">uint256 exchangeRatio</text><rect fill="none" height="6" style="stroke:#C82930;stroke-width:1.0;" width="6" x="332" y="114.8359"/><text fill="#000000" font-family="sans-serif" font-size="14" lengthAdjust="spacing" textLength="157" x="344" y="121.1826">uint256 returnPenalty</text><rect fill="none" height="6" style="stroke:#C82930;stroke-width:1.0;" width="6" x="332" y="131.1328"/><text fill="#000000" font-family="sans-serif" font-size="14" lengthAdjust="spacing" textLength="191" x="344" y="137.4795">uint256 minReturnAmount</text><line style="stroke:#181818;stroke-width:0.5;" x1="325" x2="541" y1="144.7813" y2="144.7813"/><ellipse cx="335" cy="158.4297" fill="#84BE84" rx="3" ry="3" style="stroke:#038048;stroke-width:1.0;"/><text fill="#000000" font-family="sans-serif" font-size="14" lengthAdjust="spacing" textLength="112" x="344" y="161.7764">{constructor}()</text><ellipse cx="335" cy="174.7266" fill="#84BE84" rx="3" ry="3" style="stroke:#038048;stroke-width:1.0;"/><text fill="#000000" font-family="sans-serif" font-size="14" lengthAdjust="spacing" textLength="151" x="344" y="178.0732">createNewProperty()</text><ellipse cx="335" cy="191.0234" fill="#84BE84" rx="3" ry="3" style="stroke:#038048;stroke-width:1.0;"/><text fill="#000000" font-family="sans-serif" font-size="14" lengthAdjust="spacing" textLength="127" x="344" y="194.3701">purchaseTokens()</text><ellipse cx="335" cy="207.3203" fill="#84BE84" rx="3" ry="3" style="stroke:#038048;stroke-width:1.0;"/><text fill="#000000" font-family="sans-serif" font-size="14" lengthAdjust="spacing" textLength="107" x="344" y="210.667">returnTokens()</text><ellipse cx="335" cy="223.6172" fill="#84BE84" rx="3" ry="3" style="stroke:#038048;stroke-width:1.0;"/><text fill="#000000" font-family="sans-serif" font-size="14" lengthAdjust="spacing" textLength="168" x="344" y="226.9639">updateExchangeRatio()</text><ellipse cx="335" cy="239.9141" fill="#84BE84" rx="3" ry="3" style="stroke:#038048;stroke-width:1.0;"/><text fill="#000000" font-family="sans-serif" font-size="14" lengthAdjust="spacing" textLength="164" x="344" y="243.2607">updateReturnPenalty()</text><ellipse cx="335" cy="256.2109" fill="#84BE84" rx="3" ry="3" style="stroke:#038048;stroke-width:1.0;"/><text fill="#000000" font-family="sans-serif" font-size="14" lengthAdjust="spacing" textLength="192" x="344" y="259.5576">updateMinReturnAmount()</text><ellipse cx="335" cy="272.5078" fill="#84BE84" rx="3" ry="3" style="stroke:#038048;stroke-width:1.0;"/><text fill="#000000" font-family="sans-serif" font-size="14" lengthAdjust="spacing" textLength="87" x="344" y="275.8545">updateFee()</text><ellipse cx="335" cy="288.8047" fill="#84BE84" rx="3" ry="3" style="stroke:#038048;stroke-width:1.0;"/><text fill="#000000" font-family="sans-serif" font-size="14" lengthAdjust="spacing" textLength="111" x="344" y="292.1514">getProperties()</text><ellipse cx="335" cy="305.1016" fill="#84BE84" rx="3" ry="3" style="stroke:#038048;stroke-width:1.0;"/><text fill="#000000" font-family="sans-serif" font-size="14" lengthAdjust="spacing" textLength="75" x="344" y="308.4482">withdraw()</text><ellipse cx="335" cy="321.3984" fill="#84BE84" rx="3" ry="3" style="stroke:#038048;stroke-width:1.0;"/><text fill="#000000" font-family="sans-serif" font-size="14" lengthAdjust="spacing" textLength="120" x="344" y="324.7451">withdrawToken()</text><ellipse cx="335" cy="337.6953" fill="#84BE84" rx="3" ry="3" style="stroke:#038048;stroke-width:1.0;"/><text fill="#000000" font-family="sans-serif" font-size="14" lengthAdjust="spacing" textLength="130" x="344" y="341.042">withdrawCustom()</text></g><!--class SharedStruct--><g id="elem_SharedStruct"><rect codeLine="35" fill="#F1F1F1" height="96.8906" id="SharedStruct" rx="2.5" ry="2.5" style="stroke:#181818;stroke-width:0.5;" width="180" x="508" y="679"/><ellipse cx="546.85" cy="695" fill="#ADD1B2" rx="11" ry="11" style="stroke:#181818;stroke-width:1.0;"/><path d="M549.1938,690.6719 C548.2563,690.2344 547.6625,690.0938 546.7875,690.0938 C544.1625,690.0938 542.1625,692.1719 542.1625,694.8906 L542.1625,696.0156 C542.1625,698.5938 544.2719,700.4844 547.1625,700.4844 C548.3813,700.4844 549.5375,700.1875 550.2875,699.6406 C550.8656,699.2344 551.1938,698.7813 551.1938,698.3906 C551.1938,697.9375 550.8031,697.5469 550.3344,697.5469 C550.1156,697.5469 549.9125,697.625 549.725,697.8125 C549.2719,698.2969 549.2719,698.2969 549.0844,698.3906 C548.6625,698.6563 547.975,698.7813 547.2094,698.7813 C545.1625,698.7813 543.8656,697.6875 543.8656,695.9844 L543.8656,694.8906 C543.8656,693.1094 545.1156,691.7969 546.85,691.7969 C547.4281,691.7969 548.0375,691.9531 548.5063,692.2031 C548.9906,692.4844 549.1625,692.7031 549.2563,693.1094 C549.3188,693.5156 549.35,693.6406 549.4906,693.7656 C549.6313,693.9063 549.8656,694.0156 550.0844,694.0156 C550.35,694.0156 550.6156,693.875 550.7875,693.6563 C550.8969,693.5 550.9281,693.3125 550.9281,692.8906 L550.9281,691.4688 C550.9281,691.0313 550.9125,690.9063 550.8188,690.75 C550.6625,690.4844 550.3813,690.3438 550.0844,690.3438 C549.7875,690.3438 549.5844,690.4375 549.3656,690.75 L549.1938,690.6719 Z " fill="#000000"/><text fill="#000000" font-family="sans-serif" font-size="14" lengthAdjust="spacing" textLength="95" x="566.15" y="699.8467">SharedStruct</text><line style="stroke:#181818;stroke-width:0.5;" x1="509" x2="687" y1="711" y2="711"/><text fill="#000000" font-family="sans-serif" font-size="14" lengthAdjust="spacing" textLength="121" x="514" y="727.9951">PropertyAddress</text><text fill="#000000" font-family="sans-serif" font-size="14" lengthAdjust="spacing" textLength="98" x="514" y="744.292">PropertyData</text><text fill="#000000" font-family="sans-serif" font-size="14" lengthAdjust="spacing" textLength="168" x="514" y="760.5889">PropertyOwnerContact</text><line style="stroke:#181818;stroke-width:0.5;" x1="509" x2="687" y1="767.8906" y2="767.8906"/></g><!--class TestToken--><g id="elem_TestToken"><rect codeLine="41" fill="#F1F1F1" height="145.7813" id="TestToken" rx="2.5" ry="2.5" style="stroke:#181818;stroke-width:0.5;" width="284" x="49" y="440.5"/><ellipse cx="148.25" cy="456.5" fill="#ADD1B2" rx="11" ry="11" style="stroke:#181818;stroke-width:1.0;"/><path d="M150.5938,452.1719 C149.6563,451.7344 149.0625,451.5938 148.1875,451.5938 C145.5625,451.5938 143.5625,453.6719 143.5625,456.3906 L143.5625,457.5156 C143.5625,460.0938 145.6719,461.9844 148.5625,461.9844 C149.7813,461.9844 150.9375,461.6875 151.6875,461.1406 C152.2656,460.7344 152.5938,460.2813 152.5938,459.8906 C152.5938,459.4375 152.2031,459.0469 151.7344,459.0469 C151.5156,459.0469 151.3125,459.125 151.125,459.3125 C150.6719,459.7969 150.6719,459.7969 150.4844,459.8906 C150.0625,460.1563 149.375,460.2813 148.6094,460.2813 C146.5625,460.2813 145.2656,459.1875 145.2656,457.4844 L145.2656,456.3906 C145.2656,454.6094 146.5156,453.2969 148.25,453.2969 C148.8281,453.2969 149.4375,453.4531 149.9063,453.7031 C150.3906,453.9844 150.5625,454.2031 150.6563,454.6094 C150.7188,455.0156 150.75,455.1406 150.8906,455.2656 C151.0313,455.4063 151.2656,455.5156 151.4844,455.5156 C151.75,455.5156 152.0156,455.375 152.1875,455.1563 C152.2969,455 152.3281,454.8125 152.3281,454.3906 L152.3281,452.9688 C152.3281,452.5313 152.3125,452.4063 152.2188,452.25 C152.0625,451.9844 151.7813,451.8438 151.4844,451.8438 C151.1875,451.8438 150.9844,451.9375 150.7656,452.25 L150.5938,452.1719 Z " fill="#000000"/><text fill="#000000" font-family="sans-serif" font-size="14" lengthAdjust="spacing" textLength="77" x="168.75" y="461.3467">TestToken</text><line style="stroke:#181818;stroke-width:0.5;" x1="50" x2="332" y1="472.5" y2="472.5"/><rect fill="none" height="6" style="stroke:#C82930;stroke-width:1.0;" width="6" x="57" y="483.1484"/><text fill="#000000" font-family="sans-serif" font-size="14" lengthAdjust="spacing" textLength="163" x="69" y="489.4951">DEFAULT_ADMIN_ROLE</text><rect fill="none" height="6" style="stroke:#C82930;stroke-width:1.0;" width="6" x="57" y="499.4453"/><text fill="#000000" font-family="sans-serif" font-size="14" lengthAdjust="spacing" textLength="99" x="69" y="505.792">MINTER_ROLE</text><rect fill="none" height="6" style="stroke:#C82930;stroke-width:1.0;" width="6" x="57" y="515.7422"/><text fill="#000000" font-family="sans-serif" font-size="14" lengthAdjust="spacing" textLength="103" x="69" y="522.0889">BURNER_ROLE</text><line style="stroke:#181818;stroke-width:0.5;" x1="50" x2="332" y1="529.3906" y2="529.3906"/><ellipse cx="60" cy="543.0391" fill="#84BE84" rx="3" ry="3" style="stroke:#038048;stroke-width:1.0;"/><text fill="#000000" font-family="sans-serif" font-size="14" lengthAdjust="spacing" textLength="112" x="69" y="546.3857">{constructor}()</text><ellipse cx="60" cy="559.3359" fill="#84BE84" rx="3" ry="3" style="stroke:#038048;stroke-width:1.0;"/><text fill="#000000" font-family="sans-serif" font-size="14" lengthAdjust="spacing" textLength="240" x="69" y="562.6826">mint(address to, uint256 amount)</text><ellipse cx="60" cy="575.6328" fill="#84BE84" rx="3" ry="3" style="stroke:#038048;stroke-width:1.0;"/><text fill="#000000" font-family="sans-serif" font-size="14" lengthAdjust="spacing" textLength="258" x="69" y="578.9795">burn(address from, uint256 amount)</text></g><!--class PropertyAddress--><g id="elem_PropertyAddress"><rect codeLine="50" fill="#F1F1F1" height="145.7813" id="PropertyAddress" rx="2.5" ry="2.5" style="stroke:#181818;stroke-width:0.5;" width="162" x="1033" y="104.5"/><ellipse cx="1052.05" cy="120.5" fill="#ADD1B2" rx="11" ry="11" style="stroke:#181818;stroke-width:1.0;"/><path d="M1054.3938,116.1719 C1053.4563,115.7344 1052.8625,115.5938 1051.9875,115.5938 C1049.3625,115.5938 1047.3625,117.6719 1047.3625,120.3906 L1047.3625,121.5156 C1047.3625,124.0938 1049.4719,125.9844 1052.3625,125.9844 C1053.5813,125.9844 1054.7375,125.6875 1055.4875,125.1406 C1056.0656,124.7344 1056.3938,124.2813 1056.3938,123.8906 C1056.3938,123.4375 1056.0031,123.0469 1055.5344,123.0469 C1055.3156,123.0469 1055.1125,123.125 1054.925,123.3125 C1054.4719,123.7969 1054.4719,123.7969 1054.2844,123.8906 C1053.8625,124.1563 1053.175,124.2813 1052.4094,124.2813 C1050.3625,124.2813 1049.0656,123.1875 1049.0656,121.4844 L1049.0656,120.3906 C1049.0656,118.6094 1050.3156,117.2969 1052.05,117.2969 C1052.6281,117.2969 1053.2375,117.4531 1053.7063,117.7031 C1054.1906,117.9844 1054.3625,118.2031 1054.4563,118.6094 C1054.5188,119.0156 1054.55,119.1406 1054.6906,119.2656 C1054.8313,119.4063 1055.0656,119.5156 1055.2844,119.5156 C1055.55,119.5156 1055.8156,119.375 1055.9875,119.1563 C1056.0969,119 1056.1281,118.8125 1056.1281,118.3906 L1056.1281,116.9688 C1056.1281,116.5313 1056.1125,116.4063 1056.0188,116.25 C1055.8625,115.9844 1055.5813,115.8438 1055.2844,115.8438 C1054.9875,115.8438 1054.7844,115.9375 1054.5656,116.25 L1054.3938,116.1719 Z " fill="#000000"/><text fill="#000000" font-family="sans-serif" font-size="14" lengthAdjust="spacing" textLength="121" x="1066.95" y="125.3467">PropertyAddress</text><line style="stroke:#181818;stroke-width:0.5;" x1="1034" x2="1194" y1="136.5" y2="136.5"/><rect fill="none" height="6" style="stroke:#C82930;stroke-width:1.0;" width="6" x="1041" y="147.1484"/><text fill="#000000" font-family="sans-serif" font-size="14" lengthAdjust="spacing" textLength="136" x="1053" y="153.4951">UnitNumber  string</text><rect fill="none" height="6" style="stroke:#C82930;stroke-width:1.0;" width="6" x="1041" y="163.4453"/><text fill="#000000" font-family="sans-serif" font-size="14" lengthAdjust="spacing" textLength="97" x="1053" y="169.792">Street  string</text><rect fill="none" height="6" style="stroke:#C82930;stroke-width:1.0;" width="6" x="1041" y="179.7422"/><text fill="#000000" font-family="sans-serif" font-size="14" lengthAdjust="spacing" textLength="79" x="1053" y="186.0889">City  string</text><rect fill="none" height="6" style="stroke:#C82930;stroke-width:1.0;" width="6" x="1041" y="196.0391"/><text fill="#000000" font-family="sans-serif" font-size="14" lengthAdjust="spacing" textLength="90" x="1053" y="202.3857">State  string</text><rect fill="none" height="6" style="stroke:#C82930;stroke-width:1.0;" width="6" x="1041" y="212.3359"/><text fill="#000000" font-family="sans-serif" font-size="14" lengthAdjust="spacing" textLength="74" x="1053" y="218.6826">Zip  string</text><rect fill="none" height="6" style="stroke:#C82930;stroke-width:1.0;" width="6" x="1041" y="228.6328"/><text fill="#000000" font-family="sans-serif" font-size="14" lengthAdjust="spacing" textLength="107" x="1053" y="234.9795">Country  string</text><line style="stroke:#181818;stroke-width:0.5;" x1="1034" x2="1194" y1="242.2813" y2="242.2813"/></g><!--class PropertyData--><g id="elem_PropertyData"><rect codeLine="59" fill="#F1F1F1" height="227.2656" id="PropertyData" rx="2.5" ry="2.5" style="stroke:#181818;stroke-width:0.5;" width="186" x="577" y="64"/><ellipse cx="617.2" cy="80" fill="#ADD1B2" rx="11" ry="11" style="stroke:#181818;stroke-width:1.0;"/><path d="M619.5438,75.6719 C618.6063,75.2344 618.0125,75.0938 617.1375,75.0938 C614.5125,75.0938 612.5125,77.1719 612.5125,79.8906 L612.5125,81.0156 C612.5125,83.5938 614.6219,85.4844 617.5125,85.4844 C618.7313,85.4844 619.8875,85.1875 620.6375,84.6406 C621.2156,84.2344 621.5438,83.7813 621.5438,83.3906 C621.5438,82.9375 621.1531,82.5469 620.6844,82.5469 C620.4656,82.5469 620.2625,82.625 620.075,82.8125 C619.6219,83.2969 619.6219,83.2969 619.4344,83.3906 C619.0125,83.6563 618.325,83.7813 617.5594,83.7813 C615.5125,83.7813 614.2156,82.6875 614.2156,80.9844 L614.2156,79.8906 C614.2156,78.1094 615.4656,76.7969 617.2,76.7969 C617.7781,76.7969 618.3875,76.9531 618.8563,77.2031 C619.3406,77.4844 619.5125,77.7031 619.6063,78.1094 C619.6688,78.5156 619.7,78.6406 619.8406,78.7656 C619.9813,78.9063 620.2156,79.0156 620.4344,79.0156 C620.7,79.0156 620.9656,78.875 621.1375,78.6563 C621.2469,78.5 621.2781,78.3125 621.2781,77.8906 L621.2781,76.4688 C621.2781,76.0313 621.2625,75.9063 621.1688,75.75 C621.0125,75.4844 620.7313,75.3438 620.4344,75.3438 C620.1375,75.3438 619.9344,75.4375 619.7156,75.75 L619.5438,75.6719 Z " fill="#000000"/><text fill="#000000" font-family="sans-serif" font-size="14" lengthAdjust="spacing" textLength="98" x="636.8" y="84.8467">PropertyData</text><line style="stroke:#181818;stroke-width:0.5;" x1="578" x2="762" y1="96" y2="96"/><rect fill="none" height="6" style="stroke:#C82930;stroke-width:1.0;" width="6" x="585" y="106.6484"/><text fill="#000000" font-family="sans-serif" font-size="14" lengthAdjust="spacing" textLength="91" x="597" y="112.9951">Name  string</text><rect fill="none" height="6" style="stroke:#C82930;stroke-width:1.0;" width="6" x="585" y="122.9453"/><text fill="#000000" font-family="sans-serif" font-size="14" lengthAdjust="spacing" textLength="134" x="597" y="129.292">Description  string</text><rect fill="none" height="6" style="stroke:#C82930;stroke-width:1.0;" width="6" x="585" y="139.2422"/><text fill="#000000" font-family="sans-serif" font-size="14" lengthAdjust="spacing" textLength="160" x="597" y="145.5889">PropertyStatus  string</text><rect fill="none" height="6" style="stroke:#C82930;stroke-width:1.0;" width="6" x="585" y="155.5391"/><text fill="#000000" font-family="sans-serif" font-size="14" lengthAdjust="spacing" textLength="150" x="597" y="161.8857">PropertyType  string</text><rect fill="none" height="6" style="stroke:#C82930;stroke-width:1.0;" width="6" x="585" y="171.8359"/><text fill="#000000" font-family="sans-serif" font-size="14" lengthAdjust="spacing" textLength="114" x="597" y="178.1826">LandSize  string</text><rect fill="none" height="6" style="stroke:#C82930;stroke-width:1.0;" width="6" x="585" y="188.1328"/><text fill="#000000" font-family="sans-serif" font-size="14" lengthAdjust="spacing" textLength="141" x="597" y="194.4795">PricePerSqft  string</text><rect fill="none" height="6" style="stroke:#C82930;stroke-width:1.0;" width="6" x="585" y="204.4297"/><text fill="#000000" font-family="sans-serif" font-size="14" lengthAdjust="spacing" textLength="123" x="597" y="210.7764">Bedrooms  string</text><rect fill="none" height="6" style="stroke:#C82930;stroke-width:1.0;" width="6" x="585" y="220.7266"/><text fill="#000000" font-family="sans-serif" font-size="14" lengthAdjust="spacing" textLength="129" x="597" y="227.0732">Bathrooms  string</text><rect fill="none" height="6" style="stroke:#C82930;stroke-width:1.0;" width="6" x="585" y="237.0234"/><text fill="#000000" font-family="sans-serif" font-size="14" lengthAdjust="spacing" textLength="115" x="597" y="243.3701">YearBuilt  string</text><rect fill="none" height="6" style="stroke:#C82930;stroke-width:1.0;" width="6" x="585" y="253.3203"/><text fill="#000000" font-family="sans-serif" font-size="14" lengthAdjust="spacing" textLength="147" x="597" y="259.667">LastSoldPrice  string</text><rect fill="none" height="6" style="stroke:#C82930;stroke-width:1.0;" width="6" x="585" y="269.6172"/><text fill="#000000" font-family="sans-serif" font-size="14" lengthAdjust="spacing" textLength="146" x="597" y="275.9639">LastSoldDate  string</text><line style="stroke:#181818;stroke-width:0.5;" x1="578" x2="762" y1="283.2656" y2="283.2656"/></g><!--class PropertyOwnerContact--><g id="elem_PropertyOwnerContact"><rect codeLine="74" fill="#F1F1F1" height="96.8906" id="PropertyOwnerContact" rx="2.5" ry="2.5" style="stroke:#181818;stroke-width:0.5;" width="200" x="798" y="129"/><ellipse cx="813" cy="145" fill="#ADD1B2" rx="11" ry="11" style="stroke:#181818;stroke-width:1.0;"/><path d="M815.3438,140.6719 C814.4063,140.2344 813.8125,140.0938 812.9375,140.0938 C810.3125,140.0938 808.3125,142.1719 808.3125,144.8906 L808.3125,146.0156 C808.3125,148.5938 810.4219,150.4844 813.3125,150.4844 C814.5313,150.4844 815.6875,150.1875 816.4375,149.6406 C817.0156,149.2344 817.3438,148.7813 817.3438,148.3906 C817.3438,147.9375 816.9531,147.5469 816.4844,147.5469 C816.2656,147.5469 816.0625,147.625 815.875,147.8125 C815.4219,148.2969 815.4219,148.2969 815.2344,148.3906 C814.8125,148.6563 814.125,148.7813 813.3594,148.7813 C811.3125,148.7813 810.0156,147.6875 810.0156,145.9844 L810.0156,144.8906 C810.0156,143.1094 811.2656,141.7969 813,141.7969 C813.5781,141.7969 814.1875,141.9531 814.6563,142.2031 C815.1406,142.4844 815.3125,142.7031 815.4063,143.1094 C815.4688,143.5156 815.5,143.6406 815.6406,143.7656 C815.7813,143.9063 816.0156,144.0156 816.2344,144.0156 C816.5,144.0156 816.7656,143.875 816.9375,143.6563 C817.0469,143.5 817.0781,143.3125 817.0781,142.8906 L817.0781,141.4688 C817.0781,141.0313 817.0625,140.9063 816.9688,140.75 C816.8125,140.4844 816.5313,140.3438 816.2344,140.3438 C815.9375,140.3438 815.7344,140.4375 815.5156,140.75 L815.3438,140.6719 Z " fill="#000000"/><text fill="#000000" font-family="sans-serif" font-size="14" lengthAdjust="spacing" textLength="168" x="827" y="149.8467">PropertyOwnerContact</text><line style="stroke:#181818;stroke-width:0.5;" x1="799" x2="997" y1="161" y2="161"/><rect fill="none" height="6" style="stroke:#C82930;stroke-width:1.0;" width="6" x="806" y="171.6484"/><text fill="#000000" font-family="sans-serif" font-size="14" lengthAdjust="spacing" textLength="91" x="818" y="177.9951">Name  string</text><rect fill="none" height="6" style="stroke:#C82930;stroke-width:1.0;" width="6" x="806" y="187.9453"/><text fill="#000000" font-family="sans-serif" font-size="14" lengthAdjust="spacing" textLength="89" x="818" y="194.292">Email  string</text><rect fill="none" height="6" style="stroke:#C82930;stroke-width:1.0;" width="6" x="806" y="204.2422"/><text fill="#000000" font-family="sans-serif" font-size="14" lengthAdjust="spacing" textLength="95" x="818" y="210.5889">Phone  string</text><line style="stroke:#181818;stroke-width:0.5;" x1="799" x2="997" y1="217.8906" y2="217.8906"/></g><!--class Ownable--><g id="elem_Ownable"><rect fill="#F1F1F1" height="48" id="Ownable" rx="2.5" ry="2.5" style="stroke:#181818;stroke-width:0.5;" width="94" x="743" y="703.5"/><ellipse cx="758" cy="719.5" fill="#ADD1B2" rx="11" ry="11" style="stroke:#181818;stroke-width:1.0;"/><path d="M760.3438,715.1719 C759.4063,714.7344 758.8125,714.5938 757.9375,714.5938 C755.3125,714.5938 753.3125,716.6719 753.3125,719.3906 L753.3125,720.5156 C753.3125,723.0938 755.4219,724.9844 758.3125,724.9844 C759.5313,724.9844 760.6875,724.6875 761.4375,724.1406 C762.0156,723.7344 762.3438,723.2813 762.3438,722.8906 C762.3438,722.4375 761.9531,722.0469 761.4844,722.0469 C761.2656,722.0469 761.0625,722.125 760.875,722.3125 C760.4219,722.7969 760.4219,722.7969 760.2344,722.8906 C759.8125,723.1563 759.125,723.2813 758.3594,723.2813 C756.3125,723.2813 755.0156,722.1875 755.0156,720.4844 L755.0156,719.3906 C755.0156,717.6094 756.2656,716.2969 758,716.2969 C758.5781,716.2969 759.1875,716.4531 759.6563,716.7031 C760.1406,716.9844 760.3125,717.2031 760.4063,717.6094 C760.4688,718.0156 760.5,718.1406 760.6406,718.2656 C760.7813,718.4063 761.0156,718.5156 761.2344,718.5156 C761.5,718.5156 761.7656,718.375 761.9375,718.1563 C762.0469,718 762.0781,717.8125 762.0781,717.3906 L762.0781,715.9688 C762.0781,715.5313 762.0625,715.4063 761.9688,715.25 C761.8125,714.9844 761.5313,714.8438 761.2344,714.8438 C760.9375,714.8438 760.7344,714.9375 760.5156,715.25 L760.3438,715.1719 Z " fill="#000000"/><text fill="#000000" font-family="sans-serif" font-size="14" lengthAdjust="spacing" textLength="62" x="772" y="724.3467">Ownable</text><line style="stroke:#181818;stroke-width:0.5;" x1="744" x2="836" y1="735.5" y2="735.5"/><line style="stroke:#181818;stroke-width:0.5;" x1="744" x2="836" y1="743.5" y2="743.5"/></g><!--class IERC20--><g id="elem_IERC20"><rect fill="#F1F1F1" height="48" id="IERC20" rx="2.5" ry="2.5" style="stroke:#181818;stroke-width:0.5;" width="82" x="439" y="489.5"/><ellipse cx="454" cy="505.5" fill="#ADD1B2" rx="11" ry="11" style="stroke:#181818;stroke-width:1.0;"/><path d="M456.3438,501.1719 C455.4063,500.7344 454.8125,500.5938 453.9375,500.5938 C451.3125,500.5938 449.3125,502.6719 449.3125,505.3906 L449.3125,506.5156 C449.3125,509.0938 451.4219,510.9844 454.3125,510.9844 C455.5313,510.9844 456.6875,510.6875 457.4375,510.1406 C458.0156,509.7344 458.3438,509.2813 458.3438,508.8906 C458.3438,508.4375 457.9531,508.0469 457.4844,508.0469 C457.2656,508.0469 457.0625,508.125 456.875,508.3125 C456.4219,508.7969 456.4219,508.7969 456.2344,508.8906 C455.8125,509.1563 455.125,509.2813 454.3594,509.2813 C452.3125,509.2813 451.0156,508.1875 451.0156,506.4844 L451.0156,505.3906 C451.0156,503.6094 452.2656,502.2969 454,502.2969 C454.5781,502.2969 455.1875,502.4531 455.6563,502.7031 C456.1406,502.9844 456.3125,503.2031 456.4063,503.6094 C456.4688,504.0156 456.5,504.1406 456.6406,504.2656 C456.7813,504.4063 457.0156,504.5156 457.2344,504.5156 C457.5,504.5156 457.7656,504.375 457.9375,504.1563 C458.0469,504 458.0781,503.8125 458.0781,503.3906 L458.0781,501.9688 C458.0781,501.5313 458.0625,501.4063 457.9688,501.25 C457.8125,500.9844 457.5313,500.8438 457.2344,500.8438 C456.9375,500.8438 456.7344,500.9375 456.5156,501.25 L456.3438,501.1719 Z " fill="#000000"/><text fill="#000000" font-family="sans-serif" font-size="14" lengthAdjust="spacing" textLength="50" x="468" y="510.3467">IERC20</text><line style="stroke:#181818;stroke-width:0.5;" x1="440" x2="520" y1="521.5" y2="521.5"/><line style="stroke:#181818;stroke-width:0.5;" x1="440" x2="520" y1="529.5" y2="529.5"/></g><!--class ERC20--><g id="elem_ERC20"><rect fill="#F1F1F1" height="48" id="ERC20" rx="2.5" ry="2.5" style="stroke:#181818;stroke-width:0.5;" width="78" x="7" y="703.5"/><ellipse cx="22" cy="719.5" fill="#ADD1B2" rx="11" ry="11" style="stroke:#181818;stroke-width:1.0;"/><path d="M24.3438,715.1719 C23.4063,714.7344 22.8125,714.5938 21.9375,714.5938 C19.3125,714.5938 17.3125,716.6719 17.3125,719.3906 L17.3125,720.5156 C17.3125,723.0938 19.4219,724.9844 22.3125,724.9844 C23.5313,724.9844 24.6875,724.6875 25.4375,724.1406 C26.0156,723.7344 26.3438,723.2813 26.3438,722.8906 C26.3438,722.4375 25.9531,722.0469 25.4844,722.0469 C25.2656,722.0469 25.0625,722.125 24.875,722.3125 C24.4219,722.7969 24.4219,722.7969 24.2344,722.8906 C23.8125,723.1563 23.125,723.2813 22.3594,723.2813 C20.3125,723.2813 19.0156,722.1875 19.0156,720.4844 L19.0156,719.3906 C19.0156,717.6094 20.2656,716.2969 22,716.2969 C22.5781,716.2969 23.1875,716.4531 23.6563,716.7031 C24.1406,716.9844 24.3125,717.2031 24.4063,717.6094 C24.4688,718.0156 24.5,718.1406 24.6406,718.2656 C24.7813,718.4063 25.0156,718.5156 25.2344,718.5156 C25.5,718.5156 25.7656,718.375 25.9375,718.1563 C26.0469,718 26.0781,717.8125 26.0781,717.3906 L26.0781,715.9688 C26.0781,715.5313 26.0625,715.4063 25.9688,715.25 C25.8125,714.9844 25.5313,714.8438 25.2344,714.8438 C24.9375,714.8438 24.7344,714.9375 24.5156,715.25 L24.3438,715.1719 Z " fill="#000000"/><text fill="#000000" font-family="sans-serif" font-size="14" lengthAdjust="spacing" textLength="46" x="36" y="724.3467">ERC20</text><line style="stroke:#181818;stroke-width:0.5;" x1="8" x2="84" y1="735.5" y2="735.5"/><line style="stroke:#181818;stroke-width:0.5;" x1="8" x2="84" y1="743.5" y2="743.5"/></g><!--class ERC20Burnable--><g id="elem_ERC20Burnable"><rect fill="#F1F1F1" height="48" id="ERC20Burnable" rx="2.5" ry="2.5" style="stroke:#181818;stroke-width:0.5;" width="142" x="120" y="703.5"/><ellipse cx="135" cy="719.5" fill="#ADD1B2" rx="11" ry="11" style="stroke:#181818;stroke-width:1.0;"/><path d="M137.3438,715.1719 C136.4063,714.7344 135.8125,714.5938 134.9375,714.5938 C132.3125,714.5938 130.3125,716.6719 130.3125,719.3906 L130.3125,720.5156 C130.3125,723.0938 132.4219,724.9844 135.3125,724.9844 C136.5313,724.9844 137.6875,724.6875 138.4375,724.1406 C139.0156,723.7344 139.3438,723.2813 139.3438,722.8906 C139.3438,722.4375 138.9531,722.0469 138.4844,722.0469 C138.2656,722.0469 138.0625,722.125 137.875,722.3125 C137.4219,722.7969 137.4219,722.7969 137.2344,722.8906 C136.8125,723.1563 136.125,723.2813 135.3594,723.2813 C133.3125,723.2813 132.0156,722.1875 132.0156,720.4844 L132.0156,719.3906 C132.0156,717.6094 133.2656,716.2969 135,716.2969 C135.5781,716.2969 136.1875,716.4531 136.6563,716.7031 C137.1406,716.9844 137.3125,717.2031 137.4063,717.6094 C137.4688,718.0156 137.5,718.1406 137.6406,718.2656 C137.7813,718.4063 138.0156,718.5156 138.2344,718.5156 C138.5,718.5156 138.7656,718.375 138.9375,718.1563 C139.0469,718 139.0781,717.8125 139.0781,717.3906 L139.0781,715.9688 C139.0781,715.5313 139.0625,715.4063 138.9688,715.25 C138.8125,714.9844 138.5313,714.8438 138.2344,714.8438 C137.9375,714.8438 137.7344,714.9375 137.5156,715.25 L137.3438,715.1719 Z " fill="#000000"/><text fill="#000000" font-family="sans-serif" font-size="14" lengthAdjust="spacing" textLength="110" x="149" y="724.3467">ERC20Burnable</text><line style="stroke:#181818;stroke-width:0.5;" x1="121" x2="261" y1="735.5" y2="735.5"/><line style="stroke:#181818;stroke-width:0.5;" x1="121" x2="261" y1="743.5" y2="743.5"/></g><!--class AccessControl--><g id="elem_AccessControl"><rect fill="#F1F1F1" height="48" id="AccessControl" rx="2.5" ry="2.5" style="stroke:#181818;stroke-width:0.5;" width="135" x="297.5" y="703.5"/><ellipse cx="312.5" cy="719.5" fill="#ADD1B2" rx="11" ry="11" style="stroke:#181818;stroke-width:1.0;"/><path d="M314.8438,715.1719 C313.9063,714.7344 313.3125,714.5938 312.4375,714.5938 C309.8125,714.5938 307.8125,716.6719 307.8125,719.3906 L307.8125,720.5156 C307.8125,723.0938 309.9219,724.9844 312.8125,724.9844 C314.0313,724.9844 315.1875,724.6875 315.9375,724.1406 C316.5156,723.7344 316.8438,723.2813 316.8438,722.8906 C316.8438,722.4375 316.4531,722.0469 315.9844,722.0469 C315.7656,722.0469 315.5625,722.125 315.375,722.3125 C314.9219,722.7969 314.9219,722.7969 314.7344,722.8906 C314.3125,723.1563 313.625,723.2813 312.8594,723.2813 C310.8125,723.2813 309.5156,722.1875 309.5156,720.4844 L309.5156,719.3906 C309.5156,717.6094 310.7656,716.2969 312.5,716.2969 C313.0781,716.2969 313.6875,716.4531 314.1563,716.7031 C314.6406,716.9844 314.8125,717.2031 314.9063,717.6094 C314.9688,718.0156 315,718.1406 315.1406,718.2656 C315.2813,718.4063 315.5156,718.5156 315.7344,718.5156 C316,718.5156 316.2656,718.375 316.4375,718.1563 C316.5469,718 316.5781,717.8125 316.5781,717.3906 L316.5781,715.9688 C316.5781,715.5313 316.5625,715.4063 316.4688,715.25 C316.3125,714.9844 316.0313,714.8438 315.7344,714.8438 C315.4375,714.8438 315.2344,714.9375 315.0156,715.25 L314.8438,715.1719 Z " fill="#000000"/><text fill="#000000" font-family="sans-serif" font-size="14" lengthAdjust="spacing" textLength="103" x="326.5" y="724.3467">AccessControl</text><line style="stroke:#181818;stroke-width:0.5;" x1="298.5" x2="431.5" y1="735.5" y2="735.5"/><line style="stroke:#181818;stroke-width:0.5;" x1="298.5" x2="431.5" y1="743.5" y2="743.5"/></g><!--link Property to SharedStruct--><g id="link_Property_SharedStruct"><path codeLine="81" d="M705.748,619.258 C690.19,634.743 674.597,650.263 660.297,664.496 " fill="none" id="Property-to-SharedStruct" style="stroke:#181818;stroke-width:1.0;"/><polygon fill="none" points="665.031,669.66,645.917,678.8075,655.155,659.737,665.031,669.66" style="stroke:#181818;stroke-width:1.0;"/></g><!--link Property to Ownable--><g id="link_Property_Ownable"><path codeLine="82" d="M800.623,619.258 C798.377,641.927 796.124,664.673 794.275,683.3457 " fill="none" id="Property-to-Ownable" style="stroke:#181818;stroke-width:1.0;"/><polygon fill="none" points="801.217,684.2721,792.28,703.4846,787.285,682.892,801.217,684.2721" style="stroke:#181818;stroke-width:1.0;"/></g><!--link PropertyManager to SharedStruct--><g id="link_PropertyManager_SharedStruct"><path codeLine="83" d="M388.839,348.161 C375.81,434.439 375.373,537.906 421,619 C436.62,646.763 462.631,668.185 489.968,684.3303 " fill="none" id="PropertyManager-to-SharedStruct" style="stroke:#181818;stroke-width:1.0;"/><polygon fill="none" points="493.366,678.2101,507.552,693.9505,486.647,690.4922,493.366,678.2101" style="stroke:#181818;stroke-width:1.0;"/></g><!--link PropertyManager to Ownable--><g id="link_PropertyManager_Ownable"><path codeLine="84" d="M512.9,348.123 C521.665,368.18 530.219,388.461 538,408 C574.658,500.057 547.646,541.992 610,619 C614.498,624.555 681.257,663.773 732.171,693.2476 " fill="none" id="PropertyManager-to-Ownable" style="stroke:#181818;stroke-width:1.0;"/><polygon fill="none" points="735.912,687.3247,749.728,703.3904,728.909,699.4473,735.912,687.3247" style="stroke:#181818;stroke-width:1.0;"/></g><!--link PropertyManager to TestToken--><g id="link_PropertyManager_TestToken"><path codeLine="85" d="M323.682,329.377 C300.332,361.603 276.397,394.638 255.397,423.621 " fill="none" id="PropertyManager-to-TestToken" style="stroke:#181818;stroke-width:1.0;"/><polygon fill="none" points="260.802,428.092,243.399,440.18,249.465,419.878,260.802,428.092" style="stroke:#181818;stroke-width:1.0;"/></g><!--link PropertyManager to Property--><g id="link_PropertyManager_Property"><path codeLine="86" d="M542.03,331.016 C547.593,336.908 553.258,342.598 559,348 C576.79,364.738 596.487,380.849 616.801,396.003 " fill="none" id="PropertyManager-to-Property" style="stroke:#181818;stroke-width:1.0;"/><polygon fill="none" points="621.153,390.513,633.2,407.945,612.911,401.83,621.153,390.513" style="stroke:#181818;stroke-width:1.0;"/></g><!--link PropertyManager to IERC20--><g id="link_PropertyManager_IERC20"><path codeLine="87" d="M456.913,348.435 C463.239,393.391 469.525,438.064 473.937,469.415 " fill="none" id="PropertyManager-to-IERC20" style="stroke:#181818;stroke-width:1.0;"/><polygon fill="none" points="480.875,468.487,476.731,489.268,467.012,470.438,480.875,468.487" style="stroke:#181818;stroke-width:1.0;"/></g><!--link TestToken to ERC20--><g id="link_TestToken_ERC20"><path codeLine="88" d="M141.707,586.569 C118.943,619.852 92.7674,658.123 73.5504,686.2194 " fill="none" id="TestToken-to-ERC20" style="stroke:#181818;stroke-width:1.0;"/><polygon fill="none" points="79.1016,690.5026,62.0329,703.0588,67.546,682.5989,79.1016,690.5026" style="stroke:#181818;stroke-width:1.0;"/></g><!--link TestToken to ERC20Burnable--><g id="link_TestToken_ERC20Burnable"><path codeLine="89" d="M191,586.569 C191,618.584 191,655.214 191,682.9649 " fill="none" id="TestToken-to-ERC20Burnable" style="stroke:#181818;stroke-width:1.0;"/><polygon fill="none" points="198,683.0588,191,703.0588,184,683.0588,198,683.0588" style="stroke:#181818;stroke-width:1.0;"/></g><!--link TestToken to AccessControl--><g id="link_TestToken_AccessControl"><path codeLine="90" d="M250.151,586.569 C277.858,620.327 309.777,659.217 332.923,687.4172 " fill="none" id="TestToken-to-AccessControl" style="stroke:#181818;stroke-width:1.0;"/><polygon fill="none" points="338.483,683.1581,345.761,703.0588,327.661,692.0402,338.483,683.1581" style="stroke:#181818;stroke-width:1.0;"/></g><!--link PropertyAddress to Property--><g id="link_PropertyAddress_Property"><path codeLine="92" d="M1079.85,250.798 C1063.05,282.415 1041.02,318.856 1016,348 C1002.232,364.038 986.735,379.657 970.585,394.485 " fill="none" id="PropertyAddress-to-Property" style="stroke:#181818;stroke-width:1.0;"/><polygon fill="none" points="975.18,399.766,955.601,407.869,965.854,389.325,975.18,399.766" style="stroke:#181818;stroke-width:1.0;"/></g><!--link PropertyData to Property--><g id="link_PropertyData_Property"><path codeLine="93" d="M717.54,291.112 C730.873,322.695 745.436,357.191 759.013,389.353 " fill="none" id="PropertyData-to-Property" style="stroke:#181818;stroke-width:1.0;"/><polygon fill="none" points="765.546,386.831,766.876,407.979,752.649,392.276,765.546,386.831" style="stroke:#181818;stroke-width:1.0;"/></g><!--link PropertyOwnerContact to Property--><g id="link_PropertyOwnerContact_Property"><path codeLine="94" d="M885.535,226.354 C874.544,268.548 858.038,331.916 843.351,388.303 " fill="none" id="PropertyOwnerContact-to-Property" style="stroke:#181818;stroke-width:1.0;"/><polygon fill="none" points="850.059,390.32,838.243,407.91,836.511,386.791,850.059,390.32" style="stroke:#181818;stroke-width:1.0;"/></g><!--SRC=[XLN1Zfim4Btp5HotQYDLAxN7IYHXfKX95a5oQAigSc2IM0MRca5fkjr_ht70O6EskVczOURvpOoJvgIg_4Zm4WJU_1VFbx-P1e8i4o03IlDiHIq94XtI72p- -Sf0B3X3agAE6u9jV8A2ilFt7pujo1cg1SqKyTv_IJchKDGfSl7wyAv5wp8Z29RK2RPHDK4DXLWXgqw7ni-0G_3LyrB3mGrXaXNQo5KOBnu_-lI0KE6E_mHcUIDlspf2eVErfWmVFttsJm0M0h_J2s5dY0bIRd42i1Oi0aPol5bSGLciwA3WDSCtRKq5oAjluTf9r4nP2rc-0dMFtkbxOGky6nWEzLfSFDHhSHjJhyK-0GmR4cd_D7gbUCa4kOu0fNA4BkeAUJ7iPt8X0h94cTCsCtBiG6GFlMke-goxRWZqV2p3fs2_tXs2vMQrFSJFwx0bv74NnaDale-tGsIgVxBN-43QnKN-GGy1KLvsOKVfhWux2LwC0qVJtJq7T_MDA7_FA6xhuYXdtg_K_lQSj0y0n_Y2ogV64IrREuQ_qTAHeH4e-YHIggbKFKa3cLjIE78leKe5BULiiZ7PfMfqrTKqlxkLZjHhmhA4_W7NTpI524Jow-JmPWwPuBnmr9iJl4nGNu68UKrpTEceCE5vfgfEqykXz-F66o_uVsqD2q9pnyKld9b5zF_ERFRtYx5p5YNhasCEdltCJdzdHBpvkLvADzs1RlR-ldlzOYjq6fpBhLDIB398KxbOZSE2vxqntS8PIdpFc7AtIgDZHiW_]--></g></svg>