<?xml version="1.0" encoding="us-ascii" standalone="no"?><svg xmlns="http://www.w3.org/2000/svg" xmlns:xlink="http://www.w3.org/1999/xlink" contentStyleType="text/css" height="1210px" preserveAspectRatio="none" style="width:642px;height:1210px;background:#FFFFFF;" version="1.1" viewBox="0 0 642 1210" width="642px" zoomAndPan="magnify"><defs/><g><!--class Property--><g id="elem_Property"><rect codeLine="1" fill="#F1F1F1" height="210.9688" id="Property" rx="2.5" ry="2.5" style="stroke:#181818;stroke-width:0.5;" width="604" x="31" y="597"/><ellipse cx="296.75" cy="613" fill="#ADD1B2" rx="11" ry="11" style="stroke:#181818;stroke-width:1.0;"/><path d="M299.0938,608.6719 C298.1563,608.2344 297.5625,608.0938 296.6875,608.0938 C294.0625,608.0938 292.0625,610.1719 292.0625,612.8906 L292.0625,614.0156 C292.0625,616.5938 294.1719,618.4844 297.0625,618.4844 C298.2813,618.4844 299.4375,618.1875 300.1875,617.6406 C300.7656,617.2344 301.0938,616.7813 301.0938,616.3906 C301.0938,615.9375 300.7031,615.5469 300.2344,615.5469 C300.0156,615.5469 299.8125,615.625 299.625,615.8125 C299.1719,616.2969 299.1719,616.2969 298.9844,616.3906 C298.5625,616.6563 297.875,616.7813 297.1094,616.7813 C295.0625,616.7813 293.7656,615.6875 293.7656,613.9844 L293.7656,612.8906 C293.7656,611.1094 295.0156,609.7969 296.75,609.7969 C297.3281,609.7969 297.9375,609.9531 298.4063,610.2031 C298.8906,610.4844 299.0625,610.7031 299.1563,611.1094 C299.2188,611.5156 299.25,611.6406 299.3906,611.7656 C299.5313,611.9063 299.7656,612.0156 299.9844,612.0156 C300.25,612.0156 300.5156,611.875 300.6875,611.6563 C300.7969,611.5 300.8281,611.3125 300.8281,610.8906 L300.8281,609.4688 C300.8281,609.0313 300.8125,608.9063 300.7188,608.75 C300.5625,608.4844 300.2813,608.3438 299.9844,608.3438 C299.6875,608.3438 299.4844,608.4375 299.2656,608.75 L299.0938,608.6719 Z " fill="#000000"/><text fill="#000000" font-family="sans-serif" font-size="14" lengthAdjust="spacing" textLength="64" x="317.25" y="617.8467">Property</text><line style="stroke:#181818;stroke-width:0.5;" x1="32" x2="634" y1="629" y2="629"/><rect fill="none" height="6" style="stroke:#C82930;stroke-width:1.0;" width="6" x="39" y="639.6484"/><text fill="#000000" font-family="sans-serif" font-size="14" lengthAdjust="spacing" textLength="252" x="51" y="645.9951">propertyAddress: PropertyAddress</text><rect fill="none" height="6" style="stroke:#C82930;stroke-width:1.0;" width="6" x="39" y="655.9453"/><text fill="#000000" font-family="sans-serif" font-size="14" lengthAdjust="spacing" textLength="206" x="51" y="662.292">propertyData: PropertyData</text><rect fill="none" height="6" style="stroke:#C82930;stroke-width:1.0;" width="6" x="39" y="672.2422"/><text fill="#000000" font-family="sans-serif" font-size="14" lengthAdjust="spacing" textLength="346" x="51" y="678.5889">propertyOwnerContact: PropertyOwnerContact</text><rect fill="none" height="6" style="stroke:#C82930;stroke-width:1.0;" width="6" x="39" y="688.5391"/><text fill="#000000" font-family="sans-serif" font-size="14" lengthAdjust="spacing" textLength="137" x="51" y="694.8857">imagesCid: String[]</text><line style="stroke:#181818;stroke-width:0.5;" x1="32" x2="634" y1="702.1875" y2="702.1875"/><ellipse cx="42" cy="715.8359" fill="#84BE84" rx="3" ry="3" style="stroke:#038048;stroke-width:1.0;"/><text fill="#000000" font-family="sans-serif" font-size="14" lengthAdjust="spacing" textLength="578" x="51" y="719.1826">Property(PropertyAddress, PropertyData, PropertyOwnerContact, String[]): void</text><ellipse cx="42" cy="732.1328" fill="#84BE84" rx="3" ry="3" style="stroke:#038048;stroke-width:1.0;"/><text fill="#000000" font-family="sans-serif" font-size="14" lengthAdjust="spacing" textLength="221" x="51" y="735.4795">updatePropertyAddress(): void</text><ellipse cx="42" cy="748.4297" fill="#84BE84" rx="3" ry="3" style="stroke:#038048;stroke-width:1.0;"/><text fill="#000000" font-family="sans-serif" font-size="14" lengthAdjust="spacing" textLength="198" x="51" y="751.7764">updatePropertyData(): void</text><ellipse cx="42" cy="764.7266" fill="#84BE84" rx="3" ry="3" style="stroke:#038048;stroke-width:1.0;"/><text fill="#000000" font-family="sans-serif" font-size="14" lengthAdjust="spacing" textLength="268" x="51" y="768.0732">updatePropertyOwnerContact(): void</text><ellipse cx="42" cy="781.0234" fill="#84BE84" rx="3" ry="3" style="stroke:#038048;stroke-width:1.0;"/><text fill="#000000" font-family="sans-serif" font-size="14" lengthAdjust="spacing" textLength="174" x="51" y="784.3701">updateImagesCid(): void</text><ellipse cx="42" cy="797.3203" fill="#84BE84" rx="3" ry="3" style="stroke:#038048;stroke-width:1.0;"/><text fill="#000000" font-family="sans-serif" font-size="14" lengthAdjust="spacing" textLength="172" x="51" y="800.667">getImagesCid(): String[]</text></g><!--class PropertyManager--><g id="elem_PropertyManager"><rect codeLine="14" fill="#F1F1F1" height="341.3438" id="PropertyManager" rx="2.5" ry="2.5" style="stroke:#181818;stroke-width:0.5;" width="417" x="124.5" y="196"/><ellipse cx="266.25" cy="212" fill="#ADD1B2" rx="11" ry="11" style="stroke:#181818;stroke-width:1.0;"/><path d="M268.5938,207.6719 C267.6563,207.2344 267.0625,207.0938 266.1875,207.0938 C263.5625,207.0938 261.5625,209.1719 261.5625,211.8906 L261.5625,213.0156 C261.5625,215.5938 263.6719,217.4844 266.5625,217.4844 C267.7813,217.4844 268.9375,217.1875 269.6875,216.6406 C270.2656,216.2344 270.5938,215.7813 270.5938,215.3906 C270.5938,214.9375 270.2031,214.5469 269.7344,214.5469 C269.5156,214.5469 269.3125,214.625 269.125,214.8125 C268.6719,215.2969 268.6719,215.2969 268.4844,215.3906 C268.0625,215.6563 267.375,215.7813 266.6094,215.7813 C264.5625,215.7813 263.2656,214.6875 263.2656,212.9844 L263.2656,211.8906 C263.2656,210.1094 264.5156,208.7969 266.25,208.7969 C266.8281,208.7969 267.4375,208.9531 267.9063,209.2031 C268.3906,209.4844 268.5625,209.7031 268.6563,210.1094 C268.7188,210.5156 268.75,210.6406 268.8906,210.7656 C269.0313,210.9063 269.2656,211.0156 269.4844,211.0156 C269.75,211.0156 270.0156,210.875 270.1875,210.6563 C270.2969,210.5 270.3281,210.3125 270.3281,209.8906 L270.3281,208.4688 C270.3281,208.0313 270.3125,207.9063 270.2188,207.75 C270.0625,207.4844 269.7813,207.3438 269.4844,207.3438 C269.1875,207.3438 268.9844,207.4375 268.7656,207.75 L268.5938,207.6719 Z " fill="#000000"/><text fill="#000000" font-family="sans-serif" font-size="14" lengthAdjust="spacing" textLength="125" x="286.75" y="216.8467">PropertyManager</text><line style="stroke:#181818;stroke-width:0.5;" x1="125.5" x2="540.5" y1="228" y2="228"/><rect fill="none" height="6" style="stroke:#C82930;stroke-width:1.0;" width="6" x="132.5" y="238.6484"/><text fill="#000000" font-family="sans-serif" font-size="14" lengthAdjust="spacing" textLength="172" x="144.5" y="244.9951">i_testToken: TestToken</text><rect fill="none" height="6" style="stroke:#C82930;stroke-width:1.0;" width="6" x="132.5" y="254.9453"/><text fill="#000000" font-family="sans-serif" font-size="14" lengthAdjust="spacing" textLength="160" x="144.5" y="261.292">properties: Property[]</text><rect fill="none" height="6" style="stroke:#C82930;stroke-width:1.0;" width="6" x="132.5" y="271.2422"/><text fill="#000000" font-family="sans-serif" font-size="14" lengthAdjust="spacing" textLength="53" x="144.5" y="277.5889">fee: int</text><rect fill="none" height="6" style="stroke:#C82930;stroke-width:1.0;" width="6" x="132.5" y="287.5391"/><text fill="#000000" font-family="sans-serif" font-size="14" lengthAdjust="spacing" textLength="150" x="144.5" y="293.8857">exchangeRatio: float</text><rect fill="none" height="6" style="stroke:#C82930;stroke-width:1.0;" width="6" x="132.5" y="303.8359"/><text fill="#000000" font-family="sans-serif" font-size="14" lengthAdjust="spacing" textLength="142" x="144.5" y="310.1826">returnPenalty: float</text><rect fill="none" height="6" style="stroke:#C82930;stroke-width:1.0;" width="6" x="132.5" y="320.1328"/><text fill="#000000" font-family="sans-serif" font-size="14" lengthAdjust="spacing" textLength="162" x="144.5" y="326.4795">minReturnAmount: int</text><line style="stroke:#181818;stroke-width:0.5;" x1="125.5" x2="540.5" y1="333.7813" y2="333.7813"/><ellipse cx="135.5" cy="347.4297" fill="#84BE84" rx="3" ry="3" style="stroke:#038048;stroke-width:1.0;"/><text fill="#000000" font-family="sans-serif" font-size="14" lengthAdjust="spacing" textLength="391" x="144.5" y="350.7764">PropertyManager(int, TestToken, float, float, int): void</text><ellipse cx="135.5" cy="363.7266" fill="#84BE84" rx="3" ry="3" style="stroke:#038048;stroke-width:1.0;"/><text fill="#000000" font-family="sans-serif" font-size="14" lengthAdjust="spacing" textLength="190" x="144.5" y="367.0732">createNewProperty(): void</text><ellipse cx="135.5" cy="380.0234" fill="#84BE84" rx="3" ry="3" style="stroke:#038048;stroke-width:1.0;"/><text fill="#000000" font-family="sans-serif" font-size="14" lengthAdjust="spacing" textLength="166" x="144.5" y="383.3701">purchaseTokens(): void</text><ellipse cx="135.5" cy="396.3203" fill="#84BE84" rx="3" ry="3" style="stroke:#038048;stroke-width:1.0;"/><text fill="#000000" font-family="sans-serif" font-size="14" lengthAdjust="spacing" textLength="146" x="144.5" y="399.667">returnTokens(): void</text><ellipse cx="135.5" cy="412.6172" fill="#84BE84" rx="3" ry="3" style="stroke:#038048;stroke-width:1.0;"/><text fill="#000000" font-family="sans-serif" font-size="14" lengthAdjust="spacing" textLength="207" x="144.5" y="415.9639">updateExchangeRatio(): void</text><ellipse cx="135.5" cy="428.9141" fill="#84BE84" rx="3" ry="3" style="stroke:#038048;stroke-width:1.0;"/><text fill="#000000" font-family="sans-serif" font-size="14" lengthAdjust="spacing" textLength="203" x="144.5" y="432.2607">updateReturnPenalty(): void</text><ellipse cx="135.5" cy="445.2109" fill="#84BE84" rx="3" ry="3" style="stroke:#038048;stroke-width:1.0;"/><text fill="#000000" font-family="sans-serif" font-size="14" lengthAdjust="spacing" textLength="231" x="144.5" y="448.5576">updateMinReturnAmount(): void</text><ellipse cx="135.5" cy="461.5078" fill="#84BE84" rx="3" ry="3" style="stroke:#038048;stroke-width:1.0;"/><text fill="#000000" font-family="sans-serif" font-size="14" lengthAdjust="spacing" textLength="126" x="144.5" y="464.8545">updateFee(): void</text><ellipse cx="135.5" cy="477.8047" fill="#84BE84" rx="3" ry="3" style="stroke:#038048;stroke-width:1.0;"/><text fill="#000000" font-family="sans-serif" font-size="14" lengthAdjust="spacing" textLength="194" x="144.5" y="481.1514">getProperties(): Property[]</text><ellipse cx="135.5" cy="494.1016" fill="#84BE84" rx="3" ry="3" style="stroke:#038048;stroke-width:1.0;"/><text fill="#000000" font-family="sans-serif" font-size="14" lengthAdjust="spacing" textLength="114" x="144.5" y="497.4482">withdraw(): void</text><ellipse cx="135.5" cy="510.3984" fill="#84BE84" rx="3" ry="3" style="stroke:#038048;stroke-width:1.0;"/><text fill="#000000" font-family="sans-serif" font-size="14" lengthAdjust="spacing" textLength="159" x="144.5" y="513.7451">withdrawToken(): void</text><ellipse cx="135.5" cy="526.6953" fill="#84BE84" rx="3" ry="3" style="stroke:#038048;stroke-width:1.0;"/><text fill="#000000" font-family="sans-serif" font-size="14" lengthAdjust="spacing" textLength="169" x="144.5" y="530.042">withdrawCustom(): void</text></g><!--class SharedStruct--><g id="elem_SharedStruct"><rect codeLine="35" fill="#F1F1F1" height="48" id="SharedStruct" rx="2.5" ry="2.5" style="stroke:#181818;stroke-width:0.5;" width="127" x="211.5" y="868"/><ellipse cx="226.5" cy="884" fill="#ADD1B2" rx="11" ry="11" style="stroke:#181818;stroke-width:1.0;"/><path d="M228.8438,879.6719 C227.9063,879.2344 227.3125,879.0938 226.4375,879.0938 C223.8125,879.0938 221.8125,881.1719 221.8125,883.8906 L221.8125,885.0156 C221.8125,887.5938 223.9219,889.4844 226.8125,889.4844 C228.0313,889.4844 229.1875,889.1875 229.9375,888.6406 C230.5156,888.2344 230.8438,887.7813 230.8438,887.3906 C230.8438,886.9375 230.4531,886.5469 229.9844,886.5469 C229.7656,886.5469 229.5625,886.625 229.375,886.8125 C228.9219,887.2969 228.9219,887.2969 228.7344,887.3906 C228.3125,887.6563 227.625,887.7813 226.8594,887.7813 C224.8125,887.7813 223.5156,886.6875 223.5156,884.9844 L223.5156,883.8906 C223.5156,882.1094 224.7656,880.7969 226.5,880.7969 C227.0781,880.7969 227.6875,880.9531 228.1563,881.2031 C228.6406,881.4844 228.8125,881.7031 228.9063,882.1094 C228.9688,882.5156 229,882.6406 229.1406,882.7656 C229.2813,882.9063 229.5156,883.0156 229.7344,883.0156 C230,883.0156 230.2656,882.875 230.4375,882.6563 C230.5469,882.5 230.5781,882.3125 230.5781,881.8906 L230.5781,880.4688 C230.5781,880.0313 230.5625,879.9063 230.4688,879.75 C230.3125,879.4844 230.0313,879.3438 229.7344,879.3438 C229.4375,879.3438 229.2344,879.4375 229.0156,879.75 L228.8438,879.6719 Z " fill="#000000"/><text fill="#000000" font-family="sans-serif" font-size="14" lengthAdjust="spacing" textLength="95" x="240.5" y="888.8467">SharedStruct</text><line style="stroke:#181818;stroke-width:0.5;" x1="212.5" x2="337.5" y1="900" y2="900"/><line style="stroke:#181818;stroke-width:0.5;" x1="212.5" x2="337.5" y1="908" y2="908"/></g><!--class PropertyAddress--><g id="elem_PropertyAddress"><rect codeLine="38" fill="#F1F1F1" height="145.7813" id="PropertyAddress" rx="2.5" ry="2.5" style="stroke:#181818;stroke-width:0.5;" width="164" x="7" y="1016.5"/><ellipse cx="26.95" cy="1032.5" fill="#ADD1B2" rx="11" ry="11" style="stroke:#181818;stroke-width:1.0;"/><path d="M29.2938,1028.1719 C28.3563,1027.7344 27.7625,1027.5938 26.8875,1027.5938 C24.2625,1027.5938 22.2625,1029.6719 22.2625,1032.3906 L22.2625,1033.5156 C22.2625,1036.0938 24.3719,1037.9844 27.2625,1037.9844 C28.4813,1037.9844 29.6375,1037.6875 30.3875,1037.1406 C30.9656,1036.7344 31.2938,1036.2813 31.2938,1035.8906 C31.2938,1035.4375 30.9031,1035.0469 30.4344,1035.0469 C30.2156,1035.0469 30.0125,1035.125 29.825,1035.3125 C29.3719,1035.7969 29.3719,1035.7969 29.1844,1035.8906 C28.7625,1036.1563 28.075,1036.2813 27.3094,1036.2813 C25.2625,1036.2813 23.9656,1035.1875 23.9656,1033.4844 L23.9656,1032.3906 C23.9656,1030.6094 25.2156,1029.2969 26.95,1029.2969 C27.5281,1029.2969 28.1375,1029.4531 28.6063,1029.7031 C29.0906,1029.9844 29.2625,1030.2031 29.3563,1030.6094 C29.4188,1031.0156 29.45,1031.1406 29.5906,1031.2656 C29.7313,1031.4063 29.9656,1031.5156 30.1844,1031.5156 C30.45,1031.5156 30.7156,1031.375 30.8875,1031.1563 C30.9969,1031 31.0281,1030.8125 31.0281,1030.3906 L31.0281,1028.9688 C31.0281,1028.5313 31.0125,1028.4063 30.9188,1028.25 C30.7625,1027.9844 30.4813,1027.8438 30.1844,1027.8438 C29.8875,1027.8438 29.6844,1027.9375 29.4656,1028.25 L29.2938,1028.1719 Z " fill="#000000"/><text fill="#000000" font-family="sans-serif" font-size="14" lengthAdjust="spacing" textLength="121" x="42.05" y="1037.3467">PropertyAddress</text><line style="stroke:#181818;stroke-width:0.5;" x1="8" x2="170" y1="1048.5" y2="1048.5"/><ellipse cx="18" cy="1062.1484" fill="none" rx="3" ry="3" style="stroke:#038048;stroke-width:1.0;"/><text fill="#000000" font-family="sans-serif" font-size="14" lengthAdjust="spacing" textLength="138" x="27" y="1065.4951">unitNumber: String</text><ellipse cx="18" cy="1078.4453" fill="none" rx="3" ry="3" style="stroke:#038048;stroke-width:1.0;"/><text fill="#000000" font-family="sans-serif" font-size="14" lengthAdjust="spacing" textLength="98" x="27" y="1081.792">street: String</text><ellipse cx="18" cy="1094.7422" fill="none" rx="3" ry="3" style="stroke:#038048;stroke-width:1.0;"/><text fill="#000000" font-family="sans-serif" font-size="14" lengthAdjust="spacing" textLength="80" x="27" y="1098.0889">city: String</text><ellipse cx="18" cy="1111.0391" fill="none" rx="3" ry="3" style="stroke:#038048;stroke-width:1.0;"/><text fill="#000000" font-family="sans-serif" font-size="14" lengthAdjust="spacing" textLength="91" x="27" y="1114.3857">state: String</text><ellipse cx="18" cy="1127.3359" fill="none" rx="3" ry="3" style="stroke:#038048;stroke-width:1.0;"/><text fill="#000000" font-family="sans-serif" font-size="14" lengthAdjust="spacing" textLength="75" x="27" y="1130.6826">zip: String</text><ellipse cx="18" cy="1143.6328" fill="none" rx="3" ry="3" style="stroke:#038048;stroke-width:1.0;"/><text fill="#000000" font-family="sans-serif" font-size="14" lengthAdjust="spacing" textLength="108" x="27" y="1146.9795">country: String</text><line style="stroke:#181818;stroke-width:0.5;" x1="8" x2="170" y1="1154.2813" y2="1154.2813"/></g><!--class PropertyData--><g id="elem_PropertyData"><rect codeLine="47" fill="#F1F1F1" height="227.2656" id="PropertyData" rx="2.5" ry="2.5" style="stroke:#181818;stroke-width:0.5;" width="190" x="206" y="976"/><ellipse cx="248" cy="992" fill="#ADD1B2" rx="11" ry="11" style="stroke:#181818;stroke-width:1.0;"/><path d="M250.3438,987.6719 C249.4063,987.2344 248.8125,987.0938 247.9375,987.0938 C245.3125,987.0938 243.3125,989.1719 243.3125,991.8906 L243.3125,993.0156 C243.3125,995.5938 245.4219,997.4844 248.3125,997.4844 C249.5313,997.4844 250.6875,997.1875 251.4375,996.6406 C252.0156,996.2344 252.3438,995.7813 252.3438,995.3906 C252.3438,994.9375 251.9531,994.5469 251.4844,994.5469 C251.2656,994.5469 251.0625,994.625 250.875,994.8125 C250.4219,995.2969 250.4219,995.2969 250.2344,995.3906 C249.8125,995.6563 249.125,995.7813 248.3594,995.7813 C246.3125,995.7813 245.0156,994.6875 245.0156,992.9844 L245.0156,991.8906 C245.0156,990.1094 246.2656,988.7969 248,988.7969 C248.5781,988.7969 249.1875,988.9531 249.6563,989.2031 C250.1406,989.4844 250.3125,989.7031 250.4063,990.1094 C250.4688,990.5156 250.5,990.6406 250.6406,990.7656 C250.7813,990.9063 251.0156,991.0156 251.2344,991.0156 C251.5,991.0156 251.7656,990.875 251.9375,990.6563 C252.0469,990.5 252.0781,990.3125 252.0781,989.8906 L252.0781,988.4688 C252.0781,988.0313 252.0625,987.9063 251.9688,987.75 C251.8125,987.4844 251.5313,987.3438 251.2344,987.3438 C250.9375,987.3438 250.7344,987.4375 250.5156,987.75 L250.3438,987.6719 Z " fill="#000000"/><text fill="#000000" font-family="sans-serif" font-size="14" lengthAdjust="spacing" textLength="98" x="268" y="996.8467">PropertyData</text><line style="stroke:#181818;stroke-width:0.5;" x1="207" x2="395" y1="1008" y2="1008"/><ellipse cx="217" cy="1021.6484" fill="none" rx="3" ry="3" style="stroke:#038048;stroke-width:1.0;"/><text fill="#000000" font-family="sans-serif" font-size="14" lengthAdjust="spacing" textLength="93" x="226" y="1024.9951">name: String</text><ellipse cx="217" cy="1037.9453" fill="none" rx="3" ry="3" style="stroke:#038048;stroke-width:1.0;"/><text fill="#000000" font-family="sans-serif" font-size="14" lengthAdjust="spacing" textLength="135" x="226" y="1041.292">description: String</text><ellipse cx="217" cy="1054.2422" fill="none" rx="3" ry="3" style="stroke:#038048;stroke-width:1.0;"/><text fill="#000000" font-family="sans-serif" font-size="14" lengthAdjust="spacing" textLength="164" x="226" y="1057.5889">propertyStatus: String</text><ellipse cx="217" cy="1070.5391" fill="none" rx="3" ry="3" style="stroke:#038048;stroke-width:1.0;"/><text fill="#000000" font-family="sans-serif" font-size="14" lengthAdjust="spacing" textLength="154" x="226" y="1073.8857">propertyType: String</text><ellipse cx="217" cy="1086.8359" fill="none" rx="3" ry="3" style="stroke:#038048;stroke-width:1.0;"/><text fill="#000000" font-family="sans-serif" font-size="14" lengthAdjust="spacing" textLength="113" x="226" y="1090.1826">landSize: String</text><ellipse cx="217" cy="1103.1328" fill="none" rx="3" ry="3" style="stroke:#038048;stroke-width:1.0;"/><text fill="#000000" font-family="sans-serif" font-size="14" lengthAdjust="spacing" textLength="145" x="226" y="1106.4795">pricePerSqft: String</text><ellipse cx="217" cy="1119.4297" fill="none" rx="3" ry="3" style="stroke:#038048;stroke-width:1.0;"/><text fill="#000000" font-family="sans-serif" font-size="14" lengthAdjust="spacing" textLength="126" x="226" y="1122.7764">bedrooms: String</text><ellipse cx="217" cy="1135.7266" fill="none" rx="3" ry="3" style="stroke:#038048;stroke-width:1.0;"/><text fill="#000000" font-family="sans-serif" font-size="14" lengthAdjust="spacing" textLength="132" x="226" y="1139.0732">bathrooms: String</text><ellipse cx="217" cy="1152.0234" fill="none" rx="3" ry="3" style="stroke:#038048;stroke-width:1.0;"/><text fill="#000000" font-family="sans-serif" font-size="14" lengthAdjust="spacing" textLength="117" x="226" y="1155.3701">yearBuilt: String</text><ellipse cx="217" cy="1168.3203" fill="none" rx="3" ry="3" style="stroke:#038048;stroke-width:1.0;"/><text fill="#000000" font-family="sans-serif" font-size="14" lengthAdjust="spacing" textLength="146" x="226" y="1171.667">lastSoldPrice: String</text><ellipse cx="217" cy="1184.6172" fill="none" rx="3" ry="3" style="stroke:#038048;stroke-width:1.0;"/><text fill="#000000" font-family="sans-serif" font-size="14" lengthAdjust="spacing" textLength="145" x="226" y="1187.9639">lastSoldDate: String</text><line style="stroke:#181818;stroke-width:0.5;" x1="207" x2="395" y1="1195.2656" y2="1195.2656"/></g><!--class PropertyOwnerContact--><g id="elem_PropertyOwnerContact"><rect codeLine="61" fill="#F1F1F1" height="96.8906" id="PropertyOwnerContact" rx="2.5" ry="2.5" style="stroke:#181818;stroke-width:0.5;" width="200" x="431" y="1041"/><ellipse cx="446" cy="1057" fill="#ADD1B2" rx="11" ry="11" style="stroke:#181818;stroke-width:1.0;"/><path d="M448.3438,1052.6719 C447.4063,1052.2344 446.8125,1052.0938 445.9375,1052.0938 C443.3125,1052.0938 441.3125,1054.1719 441.3125,1056.8906 L441.3125,1058.0156 C441.3125,1060.5938 443.4219,1062.4844 446.3125,1062.4844 C447.5313,1062.4844 448.6875,1062.1875 449.4375,1061.6406 C450.0156,1061.2344 450.3438,1060.7813 450.3438,1060.3906 C450.3438,1059.9375 449.9531,1059.5469 449.4844,1059.5469 C449.2656,1059.5469 449.0625,1059.625 448.875,1059.8125 C448.4219,1060.2969 448.4219,1060.2969 448.2344,1060.3906 C447.8125,1060.6563 447.125,1060.7813 446.3594,1060.7813 C444.3125,1060.7813 443.0156,1059.6875 443.0156,1057.9844 L443.0156,1056.8906 C443.0156,1055.1094 444.2656,1053.7969 446,1053.7969 C446.5781,1053.7969 447.1875,1053.9531 447.6563,1054.2031 C448.1406,1054.4844 448.3125,1054.7031 448.4063,1055.1094 C448.4688,1055.5156 448.5,1055.6406 448.6406,1055.7656 C448.7813,1055.9063 449.0156,1056.0156 449.2344,1056.0156 C449.5,1056.0156 449.7656,1055.875 449.9375,1055.6563 C450.0469,1055.5 450.0781,1055.3125 450.0781,1054.8906 L450.0781,1053.4688 C450.0781,1053.0313 450.0625,1052.9063 449.9688,1052.75 C449.8125,1052.4844 449.5313,1052.3438 449.2344,1052.3438 C448.9375,1052.3438 448.7344,1052.4375 448.5156,1052.75 L448.3438,1052.6719 Z " fill="#000000"/><text fill="#000000" font-family="sans-serif" font-size="14" lengthAdjust="spacing" textLength="168" x="460" y="1061.8467">PropertyOwnerContact</text><line style="stroke:#181818;stroke-width:0.5;" x1="432" x2="630" y1="1073" y2="1073"/><ellipse cx="442" cy="1086.6484" fill="none" rx="3" ry="3" style="stroke:#038048;stroke-width:1.0;"/><text fill="#000000" font-family="sans-serif" font-size="14" lengthAdjust="spacing" textLength="93" x="451" y="1089.9951">name: String</text><ellipse cx="442" cy="1102.9453" fill="none" rx="3" ry="3" style="stroke:#038048;stroke-width:1.0;"/><text fill="#000000" font-family="sans-serif" font-size="14" lengthAdjust="spacing" textLength="92" x="451" y="1106.292">email: String</text><ellipse cx="442" cy="1119.2422" fill="none" rx="3" ry="3" style="stroke:#038048;stroke-width:1.0;"/><text fill="#000000" font-family="sans-serif" font-size="14" lengthAdjust="spacing" textLength="99" x="451" y="1122.5889">phone: String</text><line style="stroke:#181818;stroke-width:0.5;" x1="432" x2="630" y1="1129.8906" y2="1129.8906"/></g><!--class TestToken--><g id="elem_TestToken"><rect codeLine="67" fill="#F1F1F1" height="129.4844" id="TestToken" rx="2.5" ry="2.5" style="stroke:#181818;stroke-width:0.5;" width="182" x="242" y="7"/><ellipse cx="290.25" cy="23" fill="#ADD1B2" rx="11" ry="11" style="stroke:#181818;stroke-width:1.0;"/><path d="M292.5938,18.6719 C291.6563,18.2344 291.0625,18.0938 290.1875,18.0938 C287.5625,18.0938 285.5625,20.1719 285.5625,22.8906 L285.5625,24.0156 C285.5625,26.5938 287.6719,28.4844 290.5625,28.4844 C291.7813,28.4844 292.9375,28.1875 293.6875,27.6406 C294.2656,27.2344 294.5938,26.7813 294.5938,26.3906 C294.5938,25.9375 294.2031,25.5469 293.7344,25.5469 C293.5156,25.5469 293.3125,25.625 293.125,25.8125 C292.6719,26.2969 292.6719,26.2969 292.4844,26.3906 C292.0625,26.6563 291.375,26.7813 290.6094,26.7813 C288.5625,26.7813 287.2656,25.6875 287.2656,23.9844 L287.2656,22.8906 C287.2656,21.1094 288.5156,19.7969 290.25,19.7969 C290.8281,19.7969 291.4375,19.9531 291.9063,20.2031 C292.3906,20.4844 292.5625,20.7031 292.6563,21.1094 C292.7188,21.5156 292.75,21.6406 292.8906,21.7656 C293.0313,21.9063 293.2656,22.0156 293.4844,22.0156 C293.75,22.0156 294.0156,21.875 294.1875,21.6563 C294.2969,21.5 294.3281,21.3125 294.3281,20.8906 L294.3281,19.4688 C294.3281,19.0313 294.3125,18.9063 294.2188,18.75 C294.0625,18.4844 293.7813,18.3438 293.4844,18.3438 C293.1875,18.3438 292.9844,18.4375 292.7656,18.75 L292.5938,18.6719 Z " fill="#000000"/><text fill="#000000" font-family="sans-serif" font-size="14" lengthAdjust="spacing" textLength="77" x="310.75" y="27.8467">TestToken</text><line style="stroke:#181818;stroke-width:0.5;" x1="243" x2="423" y1="39" y2="39"/><ellipse cx="253" cy="52.6484" fill="none" rx="3" ry="3" style="stroke:#038048;stroke-width:1.0;"/><text fill="#000000" font-family="sans-serif" font-size="14" lengthAdjust="spacing" textLength="152" x="262" y="55.9951">MINTER_ROLE: String</text><ellipse cx="253" cy="68.9453" fill="none" rx="3" ry="3" style="stroke:#038048;stroke-width:1.0;"/><text fill="#000000" font-family="sans-serif" font-size="14" lengthAdjust="spacing" textLength="156" x="262" y="72.292">BURNER_ROLE: String</text><line style="stroke:#181818;stroke-width:0.5;" x1="243" x2="423" y1="79.5938" y2="79.5938"/><ellipse cx="253" cy="93.2422" fill="#84BE84" rx="3" ry="3" style="stroke:#038048;stroke-width:1.0;"/><text fill="#000000" font-family="sans-serif" font-size="14" lengthAdjust="spacing" textLength="126" x="262" y="96.5889">TestToken(): void</text><ellipse cx="253" cy="109.5391" fill="#84BE84" rx="3" ry="3" style="stroke:#038048;stroke-width:1.0;"/><text fill="#000000" font-family="sans-serif" font-size="14" lengthAdjust="spacing" textLength="155" x="262" y="112.8857">mint(String, int): void</text><ellipse cx="253" cy="125.8359" fill="#84BE84" rx="3" ry="3" style="stroke:#038048;stroke-width:1.0;"/><text fill="#000000" font-family="sans-serif" font-size="14" lengthAdjust="spacing" textLength="154" x="262" y="129.1826">burn(String, int): void</text></g><!--link Property to SharedStruct--><g id="link_Property_SharedStruct"><path codeLine="75" d="M300.608,808.214 C296.208,822.44 291.913,836.325 288.136,848.534 " fill="none" id="Property-to-SharedStruct" style="stroke:#181818;stroke-width:1.0;"/><polygon fill="none" points="294.764,850.794,282.166,867.833,281.39,846.657,294.764,850.794" style="stroke:#181818;stroke-width:1.0;"/></g><!--link Property to PropertyAddress--><g id="link_Property_PropertyAddress"><path codeLine="76" d="M237.611,808.366 C222.147,827.558 206.973,847.893 194,868 C167.796,908.614 144.109,956.779 125.893,997.718 " fill="none" id="Property-to-PropertyAddress" style="stroke:#181818;stroke-width:1.0;"/><polygon fill="none" points="132.212,1000.74,117.791,1016.266,119.382,995.136,132.212,1000.74" style="stroke:#181818;stroke-width:1.0;"/></g><!--link Property to PropertyData--><g id="link_Property_PropertyData"><path codeLine="77" d="M355.209,808.055 C359.63,842.52 361.447,880.983 356,916 C353.955,929.147 351.082,942.662 347.712,956.065 " fill="none" id="Property-to-PropertyData" style="stroke:#181818;stroke-width:1.0;"/><polygon fill="none" points="354.42,958.075,342.456,975.564,340.902,954.432,354.42,958.075" style="stroke:#181818;stroke-width:1.0;"/></g><!--link Property to PropertyOwnerContact--><g id="link_Property_PropertyOwnerContact"><path codeLine="78" d="M386.843,808.194 C422.079,876.709 467.028,964.111 497.29,1022.953 " fill="none" id="Property-to-PropertyOwnerContact" style="stroke:#181818;stroke-width:1.0;"/><polygon fill="none" points="503.646,1020.006,506.568,1040.994,491.196,1026.409,503.646,1020.006" style="stroke:#181818;stroke-width:1.0;"/></g><!--link PropertyManager to Property--><g id="link_PropertyManager_Property"><path codeLine="80" d="M333,537.435 C333,550.602 333,563.744 333,576.535 " fill="none" id="PropertyManager-to-Property" style="stroke:#181818;stroke-width:1.0;"/><polygon fill="none" points="340,576.976,333,596.976,326,576.976,340,576.976" style="stroke:#181818;stroke-width:1.0;"/></g><!--link TestToken to PropertyManager--><g id="link_TestToken_PropertyManager"><path codeLine="82" d="M333,136.08 C333,148.32 333,161.71 333,175.68 " fill="none" id="TestToken-to-PropertyManager" style="stroke:#181818;stroke-width:1.0;"/><polygon fill="none" points="340,175.75,333,195.75,326,175.75,340,175.75" style="stroke:#181818;stroke-width:1.0;"/></g><!--link SharedStruct to PropertyAddress--><g id="link_SharedStruct_PropertyAddress"><path codeLine="84" d="M249.69,916.05 C232.023,932.402 208.101,955.074 188,976 C180.244,984.074 172.299,992.612 164.447,1001.231 " fill="none" id="SharedStruct-to-PropertyAddress" style="stroke:#181818;stroke-width:1.0;"/><polygon fill="none" points="169.514,1006.064,150.927,1016.239,159.112,996.694,169.514,1006.064" style="stroke:#181818;stroke-width:1.0;"/></g><!--link SharedStruct to PropertyData--><g id="link_SharedStruct_PropertyData"><path codeLine="85" d="M278.085,916.194 C279.524,927.015 281.362,940.836 283.369,955.932 " fill="none" id="SharedStruct-to-PropertyData" style="stroke:#181818;stroke-width:1.0;"/><polygon fill="none" points="290.338,955.234,286.036,975.983,276.46,957.08,290.338,955.234" style="stroke:#181818;stroke-width:1.0;"/></g><!--link SharedStruct to PropertyOwnerContact--><g id="link_SharedStruct_PropertyOwnerContact"><path codeLine="86" d="M318.855,916.106 C346.796,931.606 383.21,953.282 413,976 C432.957,991.219 453.246,1009.393 471.243,1026.648 " fill="none" id="SharedStruct-to-PropertyOwnerContact" style="stroke:#181818;stroke-width:1.0;"/><polygon fill="none" points="476.354,1021.855,485.763,1040.841,466.568,1031.867,476.354,1021.855" style="stroke:#181818;stroke-width:1.0;"/></g><!--SRC=[TLLTRzem57tFhyWZ5V07yZ2ffKogL2XAsDCqLIQ-WBN4JksRCRhjlyz9Y7ETc2V8ESV7zyjsNZ1ZufrM5MYynd-YE5vMjwz7pZKOapZw1b3DCqCs29elohvT9EYLaiXo75GKRTIYP2SmAy6JE4CjvEdx3mlFU_bijFt2ssuHj5qufuSa_gK4RmphYZE4aTlihg1nly_ItQQgbpubIfq0FTmb-o-ASgyF6oQjJdVj4Ey81lVg9yWatlT_IPa5a1wrjLiU0P9OoBQyy3i_Ctc2bA5GINmi56jn3LXhkGF92hmIl1GoRQd7KjKIUv_vABYPXHT3F8lEmFrObgIUQx1LsSB5DPMGLQrjX0PQ7wyXNOXJl2locYOsfLEQtvJU-6bE1Ly1HjtRkNetX5Vn-KNWcMjseKjwh4qWHAngWwfqZ9k3xCmqS3iVTOvs22RpSPlTTZxcjHIuhSi3w7wa6jIW1a2AvA9fCrNO92dmAIfFtvH53qicKJG7f0j1ij9puc1oBIhR5adX_bh8xCwr2J7xQ-KP5KpoJ7o2hnKvx41d7qSllmDmhLJf-HuOdYVW5PX-gaM1_au6CrNmNUCU8fvfjIQreDT1k2PGCb5uUPoL33Yw4zNPR5ws-tNwdhwzhkdYfs_fDW2xnNJQx876MQSPdyk3dVyGPQDnRy9o-VUBDv4ZQlmwXDdsQGXJtdiGZUz0Jnf5GtayugQE8k_e1EExhsXZl4_JEFy3]--></g></svg>